<svg width="153" height="88" viewBox="0 0 153 88" fill="none" xmlns="http://www.w3.org/2000/svg">
<g clip-path="url(#clip0)">
<g clip-path="url(#clip1)">
<path d="M75.497 35.9047C75.4875 35.72 75.5158 35.5352 75.5801 35.3619C75.6444 35.1885 75.7433 35.0302 75.8708 34.8966C75.9971 34.7646 76.1501 34.6612 76.3194 34.5933C76.4888 34.5255 76.6706 34.4948 76.8528 34.5033C77.0286 34.4971 77.2037 34.5291 77.3662 34.597C77.5286 34.6648 77.6746 34.767 77.7942 34.8966C78.0456 35.172 78.1784 35.536 78.1635 35.9093V48.9565C78.1755 49.3293 78.0431 49.6922 77.7942 49.9692C77.6734 50.0971 77.5272 50.1982 77.365 50.266C77.2029 50.3337 77.0284 50.3666 76.8528 50.3625C76.6709 50.3689 76.4896 50.3373 76.3205 50.2696C76.1515 50.2019 75.9983 50.0996 75.8708 49.9692C75.7443 49.834 75.646 49.6748 75.5817 49.5008C75.5175 49.3269 75.4887 49.1418 75.497 48.9565V43.4003H69.0828V48.9746C69.0965 49.3468 68.9657 49.7099 68.718 49.9872C68.5985 50.1158 68.4532 50.2173 68.2917 50.2851C68.1302 50.3529 67.9561 50.3855 67.7811 50.3806C67.5992 50.387 67.4179 50.3554 67.2488 50.2877C67.0798 50.22 66.9266 50.1176 66.7991 49.9872C66.6726 49.8521 66.5743 49.6928 66.51 49.5189C66.4458 49.345 66.417 49.1599 66.4253 48.9746V35.9093C66.4178 35.724 66.4469 35.5392 66.5111 35.3653C66.5753 35.1915 66.6732 35.0322 66.7991 34.8966C66.9254 34.7646 67.0784 34.6612 67.2477 34.5933C67.4171 34.5255 67.5989 34.4948 67.7811 34.5033C67.9562 34.4975 68.1305 34.5296 68.2922 34.5975C68.4539 34.6654 68.5991 34.7674 68.718 34.8966C68.9654 35.1723 69.0963 35.5339 69.0828 35.9047V40.7511H75.497V35.9047Z" fill="#F8FAFC"/>
<path d="M84.2669 45.6924C84.3951 46.4001 84.7701 47.0389 85.3247 47.4944C85.8793 47.95 86.5773 48.1926 87.2938 48.1789C88.0887 48.1876 88.8697 47.9697 89.546 47.5505C89.6825 47.4503 89.8347 47.3739 89.9964 47.3244C90.1905 47.2659 90.3953 47.252 90.5955 47.2837C90.8304 47.3115 91.0485 47.4201 91.2126 47.5912C91.663 48.0432 91.663 48.5556 91.2126 49.1283C90.7838 49.6069 90.2415 49.9692 89.6361 50.1816C88.895 50.5036 88.0969 50.6727 87.2893 50.6789C86.5583 50.6795 85.8355 50.5254 85.1678 50.2268C84.4929 49.9365 83.882 49.5151 83.3702 48.9867C82.8584 48.4583 82.4559 47.8334 82.1859 47.1481C81.8803 46.4122 81.7271 45.6216 81.7355 44.8244C81.731 44.01 81.884 43.2024 82.1859 42.4464C82.4483 41.7546 82.8466 41.1227 83.3571 40.5883C83.8394 40.0869 84.4168 39.6872 85.0552 39.4129C85.6866 39.128 86.3718 38.983 87.0641 38.9879C87.7734 38.9788 88.4771 39.1158 89.1316 39.3903C89.7111 39.637 90.2283 40.0108 90.645 40.4844C91.0326 40.9334 91.3542 41.4358 91.6 41.9762C91.8436 42.5252 92.0191 43.1022 92.1225 43.6942C92.3522 45.0233 91.8522 45.6834 90.636 45.6834H84.2669V45.6924ZM89.6721 43.5224C89.5376 42.9011 89.2094 42.339 88.7352 41.9175C88.2795 41.5158 87.6931 41.2955 87.0866 41.2981C86.4747 41.2928 85.8809 41.5059 85.411 41.8994C84.8851 42.3276 84.4785 42.8852 84.2309 43.5179H89.6721V43.5224Z" fill="#F8FAFC"/>
<path d="M105.78 49.4085C105.806 49.7176 105.709 50.0246 105.511 50.2626C105.313 50.5005 105.029 50.6502 104.721 50.6789H104.599C104.313 50.6845 104.034 50.5884 103.811 50.4076C103.592 50.2223 103.442 49.967 103.388 49.6843C102.672 50.2275 101.827 50.5723 100.937 50.6842C100.047 50.7961 99.1428 50.6711 98.3159 50.3217C97.6519 50.056 97.0414 49.6715 96.5142 49.187C95.9592 48.6666 95.5215 48.033 95.2304 47.3289C94.8994 46.5537 94.7337 45.7175 94.744 44.8741C94.7382 44.0594 94.9072 43.253 95.2395 42.5097C95.5406 41.8047 95.9786 41.167 96.5277 40.6335C97.0516 40.1287 97.662 39.7229 98.3294 39.4355C98.9629 39.1441 99.6505 38.99 100.347 38.9834C101.415 39.007 102.452 39.3536 103.32 39.978C103.357 39.6934 103.504 39.435 103.73 39.2592C103.961 39.0728 104.25 38.975 104.545 38.9834C104.712 38.9747 104.879 39.0021 105.035 39.0637C105.19 39.1253 105.33 39.2197 105.446 39.3406C105.673 39.5856 105.796 39.9101 105.789 40.2447V49.3859L105.78 49.4085ZM100.374 48.2241C100.772 48.2313 101.167 48.1546 101.533 47.9988C101.899 47.8431 102.229 47.6117 102.5 47.3199C103.093 46.6435 103.398 45.7601 103.347 44.8605C103.405 43.9512 103.115 43.054 102.536 42.3515C102.262 42.0527 101.926 41.8173 101.552 41.6612C101.178 41.5051 100.775 41.4321 100.37 41.4473C99.9629 41.4465 99.56 41.5291 99.1859 41.69C98.8118 41.8509 98.4744 42.0868 98.1943 42.3831C97.5994 43.0617 97.2674 43.9324 97.2592 44.8363C97.2509 45.7402 97.5668 46.6169 98.1493 47.3063C98.4401 47.6001 98.7872 47.8317 99.1696 47.9871C99.552 48.1425 99.9619 48.2185 100.374 48.2105V48.2241Z" fill="#F8FAFC"/>
<path d="M112.608 49.065C112.743 50.9231 109.906 50.9231 110.036 49.065V35.7691C109.901 33.911 112.739 33.911 112.608 35.7691V49.065Z" fill="#F8FAFC"/>
<path d="M134.337 49.0876C134.343 49.4244 134.215 49.7497 133.981 49.9918C133.87 50.1086 133.737 50.2014 133.589 50.2643C133.441 50.3273 133.282 50.3592 133.121 50.358C132.958 50.3616 132.796 50.3328 132.644 50.2733C132.493 50.2137 132.354 50.1247 132.237 50.0112C132.12 49.8978 132.026 49.7621 131.961 49.6121C131.897 49.4621 131.862 49.3008 131.86 49.1373C131.855 49.1195 131.855 49.1009 131.86 49.0831V43.6128C131.876 43.3237 131.831 43.0344 131.728 42.764C131.624 42.4935 131.465 42.2482 131.261 42.0441C130.848 41.6666 130.305 41.4655 129.747 41.4835C129.154 41.4648 128.574 41.6641 128.117 42.0441C127.899 42.2227 127.725 42.4495 127.608 42.7067C127.492 42.9639 127.436 43.2446 127.445 43.5269V49.0876C127.45 49.4242 127.322 49.7491 127.09 49.9918C126.978 50.1087 126.844 50.2015 126.695 50.2645C126.546 50.3275 126.386 50.3593 126.225 50.358C126.058 50.3636 125.892 50.3349 125.737 50.2735C125.582 50.2121 125.441 50.1194 125.324 50.0011C125.206 49.8829 125.113 49.7416 125.052 49.586C124.991 49.4304 124.962 49.2638 124.968 49.0966V35.7149C124.962 35.5477 124.991 35.3811 125.052 35.2255C125.113 35.07 125.206 34.9286 125.324 34.8104C125.441 34.6921 125.582 34.5994 125.737 34.538C125.892 34.4766 126.058 34.4479 126.225 34.4535C126.392 34.4448 126.558 34.4722 126.714 34.5338C126.869 34.5955 127.01 34.6899 127.126 34.8107C127.353 35.0558 127.476 35.3802 127.468 35.7149V39.6525C128.201 39.2453 129.018 39.0147 129.855 38.9789C130.445 38.9748 131.031 39.0696 131.589 39.2592C132.117 39.4458 132.603 39.7329 133.022 40.1046C133.467 40.5142 133.807 41.0262 134.013 41.5965C134.261 42.2798 134.382 43.0032 134.369 43.7304V49.074L134.337 49.0876Z" fill="#F8FAFC"/>
<path d="M79.5689 69.1693C79.6433 69.3404 79.6817 69.5251 79.6817 69.7118C79.6817 69.8985 79.6433 70.0832 79.5689 70.2543C79.3924 70.5759 79.1036 70.8207 78.7581 70.9415C78.5958 71.0109 78.4204 71.0443 78.244 71.0397C78.0675 71.035 77.8942 70.9922 77.7357 70.9143C77.5733 70.8356 77.4283 70.725 77.3091 70.5892C77.19 70.4533 77.0992 70.2948 77.042 70.1232L76.006 67.3157H70.0423L69.0063 70.1232C68.8881 70.4684 68.6388 70.7528 68.3126 70.9143C68.1541 70.9922 67.9807 71.035 67.8043 71.0397C67.6279 71.0443 67.4525 71.0109 67.2901 70.9415C67.1233 70.8834 66.9701 70.7917 66.84 70.672C66.7098 70.5522 66.6055 70.407 66.5334 70.2452C66.4609 70.076 66.4235 69.8937 66.4235 69.7095C66.4235 69.5253 66.4609 69.343 66.5334 69.1738L71.2269 56.2712C71.3333 55.9454 71.548 55.6661 71.835 55.4801C72.1032 55.2838 72.4264 55.1778 72.7584 55.1772H73.3439C73.6784 55.1792 74.0041 55.285 74.2763 55.4801C74.5612 55.6695 74.7764 55.9474 74.8889 56.2712L79.5689 69.1693ZM73.0241 59.0606L70.9837 64.6484H75.0376L73.0241 59.0606Z" fill="#F8FAFC"/>
<path d="M85.1318 67.2569C85.1318 67.7723 85.0957 68.6539 85.5462 68.6132C85.7149 68.5927 85.8861 68.6071 86.0492 68.6554C86.2122 68.7038 86.3637 68.785 86.4943 68.8942C86.625 69.0035 86.732 69.1383 86.8088 69.2905C86.8856 69.4428 86.9307 69.6091 86.9411 69.7794C86.9516 69.9498 86.9272 70.1204 86.8696 70.281C86.812 70.4415 86.7223 70.5885 86.606 70.713C86.4897 70.8375 86.3493 70.9368 86.1934 71.0048C86.0374 71.0729 85.8693 71.1082 85.6993 71.1087C84.2129 71.0092 84.2129 71.1087 83.4967 70.3628C82.7805 69.6168 82.4292 68.4866 82.4292 67.0264V62.0986H82.1859C81.8187 62.1117 81.4605 61.9822 81.186 61.7369C81.0591 61.6239 80.9583 61.4844 80.8906 61.3283C80.8229 61.1721 80.79 61.003 80.7941 60.8328C80.785 60.6619 80.8158 60.4912 80.8838 60.3343C80.9518 60.1774 81.0552 60.0385 81.186 59.9286C81.4639 59.6911 81.8213 59.5683 82.1859 59.585H82.4292V56.5334C82.4207 56.1745 82.5544 55.8268 82.8009 55.5666C83.0475 55.3064 83.3868 55.155 83.7444 55.1455H83.8075C83.9853 55.1395 84.1624 55.1714 84.327 55.2392C84.4917 55.307 84.6401 55.4092 84.7624 55.5388C84.8862 55.6721 84.9825 55.8285 85.0459 55.9992C85.1093 56.1698 85.1385 56.3514 85.1318 56.5334V59.585H86.1092C86.473 59.5716 86.8279 59.6996 87.1002 59.9422C87.2257 60.0497 87.3262 60.1836 87.3947 60.3343C87.4632 60.4851 87.4979 60.649 87.4965 60.8147C87.4986 60.9846 87.4647 61.1531 87.3972 61.3089C87.3296 61.4648 87.2299 61.6045 87.1047 61.7189C86.8315 61.9634 86.475 62.0929 86.1092 62.0805H85.1318V67.2569Z" fill="#F8FAFC"/>
<path d="M102.212 56.5606C102.203 56.3758 102.231 56.1911 102.295 56.0177C102.36 55.8443 102.458 55.686 102.586 55.5524C102.712 55.4204 102.865 55.317 103.035 55.2492C103.204 55.1813 103.386 55.1506 103.568 55.1591C103.744 55.153 103.919 55.1849 104.081 55.2528C104.244 55.3206 104.39 55.4228 104.509 55.5524C104.761 55.8278 104.894 56.1918 104.879 56.5651V69.6213C104.891 69.9941 104.758 70.3571 104.509 70.634C104.389 70.762 104.242 70.8631 104.08 70.9308C103.918 70.9986 103.744 71.0314 103.568 71.0273C103.386 71.0338 103.205 71.0022 103.036 70.9345C102.867 70.8667 102.713 70.7644 102.586 70.634C102.459 70.4989 102.361 70.3396 102.297 70.1657C102.233 69.9917 102.204 69.8067 102.212 69.6213V64.0381H95.798V69.6213C95.8117 69.9936 95.6809 70.3567 95.4331 70.634C95.3137 70.7625 95.1684 70.8641 95.0068 70.9319C94.8453 70.9997 94.6712 71.0322 94.4962 71.0273C94.3143 71.0338 94.1331 71.0022 93.964 70.9345C93.7949 70.8667 93.6418 70.7644 93.5143 70.634C93.3877 70.4989 93.2894 70.3396 93.2252 70.1657C93.161 69.9917 93.1322 69.8067 93.1404 69.6213V56.5651C93.1329 56.3799 93.1621 56.195 93.2263 56.0211C93.2904 55.8473 93.3883 55.688 93.5143 55.5524C93.6406 55.4204 93.7935 55.317 93.9629 55.2492C94.1322 55.1813 94.3141 55.1506 94.4962 55.1591C94.6714 55.1533 94.8457 55.1854 95.0074 55.2533C95.169 55.3212 95.3142 55.4232 95.4331 55.5524C95.6806 55.8281 95.8114 56.1897 95.798 56.5606V61.4069H102.212V56.5606Z" fill="#F8FAFC"/>
<path d="M113.383 59.6755C114.059 59.6681 114.731 59.7782 115.369 60.001C115.939 60.2017 116.466 60.5084 116.923 60.9051C117.353 61.2789 117.72 61.7183 118.013 62.2071C118.308 62.7017 118.531 63.2361 118.675 63.794C118.829 64.3676 118.909 64.9586 118.914 65.5526C118.914 66.1321 118.842 66.7093 118.698 67.2705C118.55 67.8272 118.327 68.3611 118.036 68.8573C117.744 69.3495 117.378 69.7933 116.95 70.1729C116.494 70.5696 115.966 70.8764 115.396 71.0771C114.757 71.3014 114.083 71.413 113.405 71.4071C112.732 71.4134 112.063 71.3017 111.428 71.0771C110.861 70.8748 110.337 70.5681 109.883 70.1729C109.455 69.7941 109.088 69.352 108.793 68.8619C108.492 68.3691 108.266 67.8344 108.122 67.275C107.784 65.9958 107.829 64.645 108.252 63.3916C108.476 62.715 108.821 62.0853 109.27 61.5335C109.739 60.9606 110.334 60.5054 111.009 60.2044C111.754 59.8605 112.563 59.6801 113.383 59.6755ZM116.405 65.5526C116.409 64.9828 116.298 64.4182 116.076 63.8934C115.853 63.3833 115.494 62.9441 115.04 62.6231C114.553 62.2893 113.977 62.1108 113.387 62.1108C112.798 62.1108 112.221 62.2893 111.734 62.6231C111.275 62.9437 110.915 63.3869 110.694 63.9025C110.466 64.4222 110.351 64.9847 110.356 65.5526C110.334 66.4107 110.616 67.2488 111.153 67.917C111.417 68.2106 111.736 68.4491 112.091 68.6189C112.447 68.7887 112.832 68.8865 113.225 68.9066C113.619 68.9268 114.012 68.8689 114.383 68.7363C114.754 68.6038 115.095 68.3991 115.387 68.134C115.464 68.0662 115.536 67.9938 115.608 67.917C116.136 67.251 116.418 66.4218 116.405 65.5707V65.5526Z" fill="#F8FAFC"/>
<path d="M121.946 60.9187C121.94 60.7515 121.969 60.585 122.03 60.4294C122.091 60.2738 122.183 60.1325 122.301 60.0142C122.419 59.8959 122.56 59.8032 122.715 59.7418C122.87 59.6804 123.036 59.6517 123.202 59.6574C123.474 59.6492 123.741 59.7301 123.964 59.8879C124.172 60.0421 124.32 60.2644 124.382 60.5163C124.721 60.2317 125.113 60.018 125.536 59.8879C125.977 59.7347 126.442 59.6567 126.909 59.6574C128.432 59.6574 129.571 60.1095 130.337 61.0634C130.753 60.5903 131.284 60.2336 131.878 60.0281C132.434 59.7987 133.028 59.6731 133.63 59.6574C134.216 59.6509 134.798 59.741 135.355 59.9241C135.871 60.094 136.347 60.3662 136.756 60.7243C137.188 61.1191 137.518 61.6143 137.715 62.1665C137.956 62.8436 138.074 63.5587 138.062 64.2777V69.7525C138.067 70.0891 137.939 70.414 137.706 70.6566C137.595 70.7736 137.46 70.8664 137.311 70.9294C137.163 70.9923 137.003 71.0241 136.841 71.0228C136.675 71.0285 136.509 70.9997 136.354 70.9384C136.199 70.877 136.058 70.7843 135.94 70.666C135.822 70.5477 135.73 70.4064 135.669 70.2508C135.608 70.0952 135.579 69.9287 135.585 69.7615V64.2687C135.601 63.9808 135.559 63.6926 135.462 63.4214C135.364 63.1503 135.213 62.9017 135.017 62.6909C134.822 62.5029 134.591 62.3563 134.338 62.26C134.084 62.1637 133.815 62.1196 133.544 62.1303C132.965 62.1059 132.399 62.3067 131.963 62.6909C131.755 62.8761 131.59 63.1058 131.481 63.3631C131.371 63.6204 131.321 63.8989 131.333 64.1782V69.7389C131.338 70.0757 131.21 70.4009 130.977 70.6431C130.866 70.7599 130.732 70.8527 130.584 70.9156C130.436 70.9786 130.277 71.0105 130.116 71.0093C129.954 71.0129 129.792 70.9841 129.64 70.9246C129.488 70.865 129.35 70.776 129.233 70.6625C129.115 70.5491 129.022 70.4134 128.957 70.2634C128.892 70.1134 128.858 69.9521 128.855 69.7886C128.851 69.7708 128.851 69.7522 128.855 69.7344V64.2641C128.872 63.9756 128.829 63.6867 128.73 63.4153C128.631 63.144 128.477 62.8959 128.279 62.6864C128.08 62.4984 127.845 62.3521 127.589 62.2559C127.333 62.1597 127.061 62.1154 126.788 62.1258C126.164 62.0849 125.548 62.2782 125.058 62.6683C124.841 62.8786 124.674 63.1343 124.567 63.4172C124.46 63.7002 124.417 64.0033 124.441 64.3048V69.7299C124.446 70.0665 124.318 70.3914 124.085 70.634C123.973 70.751 123.839 70.8438 123.69 70.9068C123.542 70.9697 123.382 71.0015 123.22 71.0002C123.054 71.0059 122.888 70.9771 122.733 70.9158C122.578 70.8544 122.437 70.7617 122.319 70.6434C122.201 70.5251 122.109 70.3838 122.048 70.2282C121.987 70.0726 121.958 69.9061 121.964 69.7389V60.9187H121.946Z" fill="#F8FAFC"/>
<path d="M144.427 66.3483C144.555 67.056 144.93 67.6947 145.484 68.1503C146.039 68.6059 146.737 68.8485 147.454 68.8348C148.248 68.8435 149.029 68.6256 149.706 68.2064C149.842 68.1062 149.994 68.0298 150.156 67.9803C150.35 67.9218 150.555 67.9079 150.755 67.9396C150.99 67.9674 151.208 68.076 151.372 68.247C151.823 68.6991 151.823 69.2115 151.372 69.7841C150.944 70.2628 150.402 70.6239 149.796 70.833C149.055 71.155 148.257 71.3241 147.449 71.3303C146.718 71.3308 145.995 71.1768 145.328 70.8782C144.652 70.5902 144.041 70.1712 143.527 69.6452C143.014 69.1192 142.609 68.4965 142.337 67.813C142.031 67.0771 141.878 66.2865 141.886 65.4893C141.882 64.6749 142.035 63.8673 142.337 63.1113C142.599 62.4195 142.997 61.7876 143.508 61.2533C143.99 60.7518 144.567 60.3522 145.206 60.0778C145.837 59.7929 146.523 59.6479 147.215 59.6529C147.924 59.6437 148.628 59.7807 149.282 60.0552C149.862 60.3019 150.379 60.6758 150.796 61.1493C151.183 61.5983 151.505 62.1007 151.751 62.6412C151.994 63.1901 152.17 63.7671 152.273 64.3591C152.503 65.6882 152.003 66.3483 150.787 66.3483H144.427ZM149.832 64.1783C149.686 63.553 149.345 62.9907 148.859 62.5733C148.403 62.1717 147.817 61.9513 147.21 61.954C146.598 61.9487 146.005 62.1618 145.535 62.5553C145.013 62.9841 144.611 63.5419 144.368 64.1737H149.832V64.1783Z" fill="#F8FAFC"/>
<path d="M119.869 46.9176C119.869 47.3697 119.838 48.197 120.248 48.1744C120.552 48.1552 120.851 48.258 121.079 48.4602C121.308 48.6624 121.447 48.9474 121.466 49.2526C121.485 49.5577 121.383 49.858 121.181 50.0874C120.98 50.3167 120.696 50.4563 120.392 50.4755C119.04 50.3851 119.04 50.4755 118.374 49.7928C117.707 49.1102 117.392 48.0704 117.392 46.7277V41.592H117.171C116.84 41.6024 116.517 41.4842 116.27 41.262C116.153 41.1562 116.06 41.0263 115.998 40.8812C115.936 40.736 115.906 40.579 115.91 40.4211C115.905 40.267 115.935 40.1138 115.997 39.9729C116.06 39.832 116.153 39.7071 116.27 39.6073C116.522 39.3954 116.842 39.2829 117.171 39.2909H117.392V37.0711C117.381 36.7457 117.499 36.4292 117.72 36.191C117.941 35.9529 118.248 35.8125 118.572 35.8007H118.653C118.816 35.7947 118.979 35.8234 119.13 35.885C119.282 35.9465 119.418 36.0395 119.531 36.1579C119.757 36.4034 119.879 36.728 119.869 37.0621V39.3225H120.77C121.1 39.317 121.42 39.4328 121.671 39.648C121.786 39.7467 121.878 39.8694 121.941 40.0076C122.004 40.1459 122.037 40.2962 122.036 40.4482C122.038 40.6059 122.007 40.7622 121.945 40.9071C121.882 41.0519 121.791 41.1821 121.675 41.2891C121.428 41.5097 121.106 41.6277 120.775 41.6191H119.874L119.869 46.9176Z" fill="#F8FAFC"/>
<path d="M18.6209 71.3347V68.0616H19.0713C19.7695 68.0616 21.0712 68.3736 21.0712 69.0743V80.1098C21.0712 82.5103 22.5757 84.6306 24.9675 84.5628C27.5394 84.504 28.9403 83.0483 28.9403 80.5302V71.832C27.2647 71.3393 26.2377 69.3908 26.2377 67.0942V63.7442V63.4232H33.805V63.7171C34.3978 63.6624 34.9581 63.4201 35.4049 63.0252C35.8518 62.6304 36.1622 62.1033 36.2913 61.5199L41.7461 46.9221C41.7461 46.9221 42.6154 44.413 41.2686 43.6173L40.5389 43.441C40.2619 43.8453 39.8716 44.1581 39.4175 44.3398C38.9633 44.5216 38.4657 44.5642 37.9875 44.4622C37.5093 44.3602 37.0719 44.1182 36.7306 43.7668C36.3894 43.4155 36.1596 42.9704 36.0702 42.488C35.9809 42.0055 36.036 41.5074 36.2287 41.0564C36.4214 40.6054 36.7429 40.2218 37.1527 39.9542C37.5625 39.6865 38.0421 39.5468 38.531 39.5527C39.0198 39.5585 39.496 39.7097 39.8993 39.9871C40.2563 40.2369 40.5433 40.5747 40.7326 40.9681C41.4578 40.9997 43.7865 41.271 44.1874 43.4094C44.6604 45.9501 43.737 48.6852 43.737 48.6852L38.6876 62.18C38.6876 62.18 37.3363 65.7967 33.832 66.8455V67.0897C33.832 69.1602 33.0572 70.7063 31.6249 71.3709V80.2363C31.6249 83.853 28.5979 87.1442 25.0215 87.2663C23.275 87.3285 21.5754 86.692 20.2965 85.4965C19.0176 84.3011 18.2642 82.6448 18.202 80.8919C18.202 80.8105 18.202 80.7336 18.202 80.6568V71.3212L18.6209 71.3347Z" fill="#F8FAFC"/>
<path d="M58.6339 29.9332H51.8774L51.9045 67.0044C51.9045 67.0044 52.5486 71.9411 47.4497 71.3715L40.9905 71.4303V66.819H47.2965V26.5833C47.2965 26.5833 47.1659 25.652 48.4271 25.6249L53.1657 25.652L31.0945 5.7014C31.0945 5.7014 29.8828 3.94278 28.5946 5.72852L6.75761 25.6746H10.271C10.271 25.6746 12.7393 25.4169 12.6403 27.8717L12.2529 67.0496C12.2529 67.0496 11.9106 68.1075 13.0006 68.0622H18.1851V71.3263L10.2755 71.2404C10.2755 71.2404 8.02332 71.6473 8.14494 67.5966L8.28007 30.0237H2.28931C2.28931 30.0237 -2.05286 28.7262 1.2308 24.4133L28.5766 0.805297C28.5766 0.805297 30.3017 -1.00305 31.6395 0.805297L59.8366 26.2216C59.8366 26.2216 62.341 28.5634 58.6339 29.9332Z" fill="#F8FAFC"/>
<path d="M26.2647 63.7442V67.0987C22.0307 66.1945 20.265 62.1936 20.265 62.1936L15.2021 48.6943C15.2021 48.6943 14.2382 45.9456 14.7517 43.4184C15.3372 40.7059 18.5939 40.7059 18.5939 40.7059C18.8878 40.2412 19.3267 39.8873 19.8422 39.6994C20.3577 39.5116 20.9207 39.5004 21.4432 39.6676C21.9657 39.8348 22.4183 40.171 22.7303 40.6237C23.0423 41.0763 23.1961 41.62 23.1678 42.1696C23.1394 42.7193 22.9305 43.2441 22.5736 43.662C22.2167 44.0799 21.7319 44.3674 21.195 44.4796C20.6581 44.5918 20.0993 44.5223 19.6059 44.2821C19.1125 44.0418 18.7123 43.6443 18.4677 43.1517L17.6705 43.6038C16.5489 44.6119 17.22 46.9085 17.22 46.9085L22.6748 61.5064C22.9925 62.1886 23.5011 62.7634 24.1385 63.1607C24.7758 63.558 25.5146 63.7607 26.2647 63.7442Z" fill="#F8FAFC"/>
<path d="M18.6209 68.0616V71.3347L18.1885 71.3302V68.0616H18.6209Z" fill="#137EA0"/>
<path d="M18.6209 68.0616V71.3347L18.1885 71.3302V68.0616H18.6209Z" fill="#F8FAFC"/>
</g>
</g>
<defs>
<clipPath id="clip0">
<rect width="152.327" height="87.2708" fill="white"/>
</clipPath>
<clipPath id="clip1">
<rect width="152.327" height="87.2708" fill="white"/>
</clipPath>
</defs>
</svg>
