<svg width="360" height="63" viewBox="0 0 360 63" fill="none" xmlns="http://www.w3.org/2000/svg">
<g opacity="0.6" clip-path="url(#clip0)">
<rect x="-5" width="375" height="197" fill="#31290E"/>
<line x1="-276.354" y1="239.646" x2="6.48915" y2="-43.1963" stroke="#131825"/>
<line x1="-88.127" y1="239.489" x2="194.716" y2="-43.3535" stroke="#131825"/>
<line x1="-182.24" y1="239.646" x2="100.602" y2="-43.1963" stroke="#131825"/>
<line x1="5.98629" y1="239.489" x2="288.829" y2="-43.3535" stroke="#131825"/>
<line x1="170.685" y1="239.489" x2="453.527" y2="-43.3535" stroke="#131825"/>
<line x1="280.483" y1="239.489" x2="563.326" y2="-43.3535" stroke="#131825"/>
<line x1="-268.511" y1="239.646" x2="14.3319" y2="-43.1963" stroke="#131825"/>
<line x1="-80.2842" y1="239.489" x2="202.558" y2="-43.3535" stroke="#131825"/>
<line x1="-174.397" y1="239.646" x2="108.445" y2="-43.1963" stroke="#131825"/>
<line x1="13.8291" y1="239.489" x2="296.672" y2="-43.3535" stroke="#131825"/>
<line x1="178.527" y1="239.489" x2="461.37" y2="-43.3535" stroke="#131825"/>
<line x1="288.326" y1="239.489" x2="571.169" y2="-43.3535" stroke="#131825"/>
<line x1="-260.668" y1="239.646" x2="22.1747" y2="-43.1963" stroke="#131825"/>
<line x1="-72.4414" y1="239.489" x2="210.401" y2="-43.3535" stroke="#131825"/>
<line x1="-166.555" y1="239.646" x2="116.288" y2="-43.1963" stroke="#131825"/>
<line x1="21.6718" y1="239.489" x2="304.515" y2="-43.3535" stroke="#131825"/>
<line x1="186.37" y1="239.489" x2="469.213" y2="-43.3535" stroke="#131825"/>
<line x1="296.169" y1="239.489" x2="579.012" y2="-43.3535" stroke="#131825"/>
<line x1="-252.825" y1="239.646" x2="30.0175" y2="-43.1963" stroke="#131825"/>
<line x1="-64.5987" y1="239.489" x2="218.244" y2="-43.3535" stroke="#131825"/>
<line x1="100.1" y1="239.489" x2="382.942" y2="-43.3535" stroke="#131825"/>
<line x1="-158.712" y1="239.646" x2="124.131" y2="-43.1963" stroke="#131825"/>
<line x1="29.5146" y1="239.489" x2="312.357" y2="-43.3535" stroke="#131825"/>
<line x1="194.213" y1="239.489" x2="477.056" y2="-43.3535" stroke="#131825"/>
<line x1="304.012" y1="239.489" x2="586.854" y2="-43.3535" stroke="#131825"/>
<line x1="-244.982" y1="239.646" x2="37.8602" y2="-43.1963" stroke="#131825"/>
<line x1="-56.7559" y1="239.489" x2="226.087" y2="-43.3535" stroke="#131825"/>
<line x1="107.942" y1="239.489" x2="390.785" y2="-43.3535" stroke="#131825"/>
<line x1="-150.869" y1="239.646" x2="131.974" y2="-43.1963" stroke="#131825"/>
<line x1="37.3574" y1="239.489" x2="320.2" y2="-43.3535" stroke="#131825"/>
<line x1="202.056" y1="239.489" x2="484.898" y2="-43.3535" stroke="#131825"/>
<line x1="311.854" y1="239.489" x2="594.697" y2="-43.3535" stroke="#131825"/>
<line x1="-237.14" y1="239.646" x2="45.703" y2="-43.1963" stroke="#131825"/>
<line x1="-48.9131" y1="239.489" x2="233.93" y2="-43.3535" stroke="#131825"/>
<line x1="115.785" y1="239.489" x2="398.628" y2="-43.3535" stroke="#131825"/>
<line x1="-143.026" y1="239.646" x2="139.816" y2="-43.1963" stroke="#131825"/>
<line x1="45.2002" y1="239.489" x2="328.043" y2="-43.3535" stroke="#131825"/>
<line x1="209.898" y1="239.489" x2="492.741" y2="-43.3535" stroke="#131825"/>
<line x1="319.697" y1="239.489" x2="602.54" y2="-43.3535" stroke="#131825"/>
<line x1="-229.297" y1="239.646" x2="53.5458" y2="-43.1963" stroke="#131825"/>
<line x1="-41.0704" y1="239.489" x2="241.772" y2="-43.3535" stroke="#131825"/>
<line x1="123.628" y1="239.489" x2="406.471" y2="-43.3535" stroke="#131825"/>
<line x1="-135.184" y1="239.646" x2="147.659" y2="-43.1963" stroke="#131825"/>
<line x1="53.0429" y1="239.489" x2="335.886" y2="-43.3535" stroke="#131825"/>
<line x1="217.741" y1="239.489" x2="500.584" y2="-43.3535" stroke="#131825"/>
<line x1="327.54" y1="239.489" x2="610.383" y2="-43.3535" stroke="#131825"/>
<line x1="-221.454" y1="239.646" x2="61.3886" y2="-43.1963" stroke="#131825"/>
<line x1="-33.2276" y1="239.489" x2="249.615" y2="-43.3535" stroke="#131825"/>
<line x1="131.471" y1="239.489" x2="414.313" y2="-43.3535" stroke="#131825"/>
<line x1="-127.341" y1="239.646" x2="155.502" y2="-43.1963" stroke="#131825"/>
<line x1="60.8857" y1="239.489" x2="343.728" y2="-43.3535" stroke="#131825"/>
<line x1="225.584" y1="239.489" x2="508.427" y2="-43.3535" stroke="#131825"/>
<line x1="335.383" y1="239.489" x2="618.225" y2="-43.3535" stroke="#131825"/>
<line x1="-213.611" y1="239.646" x2="69.2313" y2="-43.1963" stroke="#131825"/>
<line x1="-25.3848" y1="239.489" x2="257.458" y2="-43.3535" stroke="#131825"/>
<line x1="139.313" y1="239.489" x2="422.156" y2="-43.3535" stroke="#131825"/>
<line x1="-119.498" y1="239.646" x2="163.345" y2="-43.1963" stroke="#131825"/>
<line x1="68.7285" y1="239.489" x2="351.571" y2="-43.3535" stroke="#131825"/>
<line x1="233.427" y1="239.489" x2="516.269" y2="-43.3535" stroke="#131825"/>
<line x1="343.226" y1="239.489" x2="626.068" y2="-43.3535" stroke="#131825"/>
<line x1="-205.769" y1="239.646" x2="77.0741" y2="-43.1963" stroke="#131825"/>
<line x1="-17.542" y1="239.489" x2="265.301" y2="-43.3535" stroke="#131825"/>
<line x1="147.156" y1="239.489" x2="429.999" y2="-43.3535" stroke="#131825"/>
<line x1="-111.655" y1="239.646" x2="171.187" y2="-43.1963" stroke="#131825"/>
<line x1="76.5713" y1="239.489" x2="359.414" y2="-43.3535" stroke="#131825"/>
<line x1="241.269" y1="239.489" x2="524.112" y2="-43.3535" stroke="#131825"/>
<line x1="351.068" y1="239.489" x2="633.911" y2="-43.3535" stroke="#131825"/>
<line x1="-197.926" y1="239.646" x2="84.9169" y2="-43.1963" stroke="#131825"/>
<line x1="-9.69926" y1="239.489" x2="273.143" y2="-43.3535" stroke="#131825"/>
<line x1="154.999" y1="239.489" x2="437.842" y2="-43.3535" stroke="#131825"/>
<line x1="264.798" y1="239.489" x2="547.641" y2="-43.3535" stroke="#131825"/>
<line x1="-103.813" y1="239.646" x2="179.03" y2="-43.1963" stroke="#131825"/>
<line x1="84.414" y1="239.489" x2="367.257" y2="-43.3535" stroke="#131825"/>
<line x1="249.112" y1="239.489" x2="531.955" y2="-43.3535" stroke="#131825"/>
<line x1="358.911" y1="239.489" x2="641.754" y2="-43.3535" stroke="#131825"/>
<line x1="-190.083" y1="239.646" x2="92.7597" y2="-43.1963" stroke="#131825"/>
<line x1="-1.85648" y1="239.489" x2="280.986" y2="-43.3535" stroke="#131825"/>
<line x1="162.842" y1="239.489" x2="445.684" y2="-43.3535" stroke="#131825"/>
<line x1="272.641" y1="239.489" x2="555.483" y2="-43.3535" stroke="#131825"/>
<line x1="-95.9698" y1="239.646" x2="186.873" y2="-43.1963" stroke="#131825"/>
<line x1="92.2568" y1="239.489" x2="375.1" y2="-43.3535" stroke="#131825"/>
<line x1="256.955" y1="239.489" x2="539.798" y2="-43.3535" stroke="#131825"/>
</g>
<defs>
<clipPath id="clip0">
<rect width="365" height="63" fill="white" transform="translate(-5)"/>
</clipPath>
</defs>
</svg>
