<svg width="152" height="87" viewBox="0 0 152 87" fill="none" xmlns="http://www.w3.org/2000/svg">
<g clip-path="url(#clip0)">
<g clip-path="url(#clip1)">
<path d="M75.3348 35.6306C75.3276 35.4475 75.3569 35.2648 75.421 35.0931C75.485 34.9214 75.5825 34.764 75.7078 34.6302C75.8344 34.4999 75.9871 34.3977 76.156 34.3305C76.3248 34.2632 76.506 34.2323 76.6877 34.2399C76.863 34.2346 77.0375 34.2667 77.1995 34.334C77.3614 34.4013 77.5072 34.5023 77.6271 34.6302C77.7517 34.7652 77.8485 34.9235 77.9117 35.096C77.975 35.2684 78.0035 35.4516 77.9956 35.6351V48.5827C78.0105 48.9532 77.878 49.3144 77.6271 49.5877C77.5072 49.7156 77.3614 49.8165 77.1995 49.8838C77.0375 49.9511 76.863 49.9832 76.6877 49.978C76.5061 49.9853 76.3249 49.9542 76.1561 49.887C75.9873 49.8197 75.8346 49.7178 75.7078 49.5877C75.5826 49.4528 75.4852 49.2947 75.4211 49.1223C75.3571 48.9498 75.3278 48.7665 75.3348 48.5827V43.069H68.9344V48.6007C68.949 48.9702 68.8184 49.3309 68.5703 49.6056C68.4517 49.7339 68.3068 49.8351 68.1455 49.9024C67.9842 49.9698 67.8102 50.0017 67.6355 49.9959C67.4538 50.0032 67.2727 49.9722 67.1039 49.9049C66.9351 49.8377 66.7823 49.7357 66.6556 49.6056C66.5304 49.4708 66.4329 49.3126 66.3689 49.1402C66.3049 48.9678 66.2756 48.7844 66.2826 48.6007V35.6351C66.2689 35.2641 66.4031 34.9027 66.6556 34.6302C66.7822 34.4999 66.9349 34.3977 67.1037 34.3305C67.2726 34.2632 67.4538 34.2323 67.6355 34.2399C67.8102 34.2341 67.9842 34.266 68.1455 34.3334C68.3068 34.4007 68.4517 34.5019 68.5703 34.6302C68.8181 34.9033 68.9488 35.2624 68.9344 35.6306V40.44H75.3348V35.6306Z" fill="#1C9DC6"/>
<path d="M84.0859 45.3436C84.2139 46.0459 84.588 46.6798 85.1414 47.1319C85.6948 47.584 86.3913 47.8248 87.1063 47.8111C87.8995 47.8201 88.6789 47.6038 89.3536 47.1875C89.4906 47.0894 89.6423 47.0137 89.8031 46.9632C89.9972 46.9072 90.201 46.8934 90.4009 46.9228C90.6347 46.9524 90.8516 47.0599 91.0167 47.2279C91.4661 47.6765 91.4661 48.1835 91.0167 48.7532C90.5905 49.2302 90.0488 49.5901 89.4435 49.7986C88.7042 50.1187 87.9077 50.2866 87.1018 50.2921C86.3726 50.2914 85.6515 50.1386 84.9849 49.8434C84.3113 49.5556 83.7016 49.1374 83.1909 48.613C82.6802 48.0886 82.2786 47.4684 82.0094 46.7882C81.7075 46.057 81.5547 45.2731 81.5599 44.4822C81.5569 43.6741 81.7095 42.873 82.0094 42.1224C82.2732 41.4368 82.6704 40.8101 83.178 40.2785C83.6605 39.7822 84.2363 39.3859 84.8725 39.1121C85.5035 38.8323 86.1866 38.6886 86.8771 38.6903C87.585 38.6805 88.2873 38.8164 88.9401 39.0896C89.5188 39.3338 90.035 39.7049 90.4503 40.1753C90.8383 40.62 91.1593 41.1187 91.4032 41.6558C91.6466 42.2005 91.8217 42.7731 91.9246 43.3606C92.1538 44.6796 91.6549 45.3346 90.4413 45.3346H84.0859V45.3436ZM89.4795 43.1902C89.345 42.5737 89.0176 42.016 88.5446 41.5975C88.0895 41.1996 87.5046 40.9811 86.8996 40.9829C86.2894 40.9799 85.6976 41.1911 85.2276 41.5795C84.7035 42.0052 84.2979 42.5583 84.05 43.1857H89.502L89.4795 43.1902Z" fill="#1C9DC6"/>
<path d="M105.552 49.0314C105.567 49.1936 105.547 49.357 105.494 49.511C105.441 49.6651 105.357 49.8063 105.246 49.9256C105.135 50.0449 105 50.1396 104.85 50.2035C104.7 50.2674 104.538 50.2991 104.375 50.2966C104.089 50.3037 103.81 50.2081 103.588 50.0274C103.37 49.843 103.221 49.5898 103.166 49.3096C102.452 49.849 101.608 50.1915 100.72 50.3025C99.8317 50.4135 98.9297 50.2892 98.1047 49.9421C97.4426 49.6775 96.8336 49.2961 96.3069 48.8161C95.7537 48.299 95.3171 47.6705 95.0259 46.9722C94.6972 46.2023 94.5319 45.3729 94.5405 44.5361C94.5372 43.7279 94.7057 42.9281 95.0349 42.1897C95.3376 41.4913 95.7743 40.8588 96.3204 40.3279C96.8441 39.828 97.4529 39.4255 98.1182 39.139C98.7507 38.8508 99.4366 38.698 100.132 38.6903C101.197 38.7157 102.231 39.0595 103.098 39.6773C103.137 39.3956 103.283 39.1397 103.507 38.964C103.738 38.7801 104.026 38.6832 104.321 38.6903C104.487 38.6817 104.654 38.7089 104.809 38.77C104.964 38.8312 105.104 38.9249 105.22 39.0448C105.333 39.1645 105.422 39.3055 105.48 39.4594C105.539 39.6134 105.566 39.7774 105.561 39.942V49.0135L105.552 49.0314ZM100.159 47.856C100.556 47.8637 100.95 47.7879 101.315 47.6332C101.681 47.4786 102.01 47.2488 102.28 46.9587C102.875 46.289 103.178 45.4112 103.125 44.5181C103.184 43.6155 102.895 42.7245 102.316 42.0282C102.042 41.7318 101.707 41.4981 101.334 41.3432C100.961 41.1883 100.558 41.1159 100.154 41.1309C99.7459 41.1286 99.3414 41.2098 98.9657 41.3695C98.5901 41.5292 98.2511 41.7641 97.9699 42.0596C97.378 42.7339 97.0479 43.5976 97.0397 44.4941C97.0314 45.3906 97.3455 46.2603 97.9249 46.9452C98.214 47.2392 98.5598 47.4715 98.9415 47.628C99.3232 47.7846 99.7327 47.8621 100.145 47.856H100.159Z" fill="#1C9DC6"/>
<path d="M112.366 48.6905C112.501 50.5343 109.669 50.5343 109.8 48.6905V35.4961C109.665 33.6522 112.497 33.6522 112.366 35.4961V48.6905Z" fill="#1C9DC6"/>
<path d="M134.048 48.7129C134.053 48.8786 134.023 49.0434 133.962 49.1976C133.901 49.3517 133.81 49.492 133.693 49.6101C133.583 49.7269 133.45 49.8196 133.302 49.8821C133.155 49.9447 132.995 49.9758 132.835 49.9735C132.668 49.9766 132.502 49.9459 132.348 49.8833C132.193 49.8207 132.053 49.7275 131.935 49.6093C131.817 49.491 131.725 49.3503 131.663 49.1954C131.602 49.0406 131.572 48.8749 131.576 48.7084V43.2799C131.593 42.993 131.548 42.7058 131.445 42.4375C131.342 42.1691 131.183 41.9257 130.979 41.7231C130.567 41.3489 130.025 41.1494 129.468 41.1668C128.877 41.1503 128.299 41.3478 127.841 41.7231C127.624 41.9006 127.451 42.1257 127.334 42.3809C127.218 42.6361 127.163 42.9145 127.172 43.1946V48.7129C127.175 48.8784 127.145 49.043 127.084 49.197C127.023 49.351 126.932 49.4914 126.817 49.6101C126.706 49.727 126.572 49.8197 126.423 49.8823C126.275 49.9448 126.115 49.9759 125.954 49.9735C125.787 49.9793 125.622 49.9509 125.467 49.8899C125.312 49.8289 125.172 49.7367 125.055 49.6191C124.938 49.5013 124.846 49.3611 124.785 49.2068C124.724 49.0526 124.695 48.8876 124.7 48.7218V35.4422C124.695 35.2765 124.724 35.1115 124.785 34.9572C124.846 34.803 124.938 34.6627 125.055 34.545C125.172 34.4273 125.312 34.3352 125.467 34.2742C125.622 34.2132 125.787 34.1847 125.954 34.1905C126.12 34.1819 126.287 34.2091 126.442 34.2702C126.597 34.3314 126.737 34.4251 126.852 34.545C126.966 34.6647 127.054 34.8056 127.113 34.9596C127.171 35.1136 127.199 35.2776 127.194 35.4422V39.3498C127.927 38.9483 128.741 38.7196 129.576 38.6814C130.165 38.6766 130.75 38.7707 131.307 38.9595C131.833 39.1447 132.318 39.4296 132.736 39.7985C133.181 40.2048 133.52 40.7129 133.725 41.279C133.973 41.9568 134.094 42.6748 134.08 43.3965V48.6994L134.048 48.7129Z" fill="#1C9DC6"/>
<path d="M79.398 68.6413C79.475 68.8103 79.5148 68.9939 79.5148 69.1796C79.5148 69.3653 79.475 69.5489 79.398 69.718C79.2236 70.0386 78.9348 70.282 78.589 70.3999C78.427 70.4691 78.252 70.5025 78.0759 70.4978C77.8998 70.4932 77.7268 70.4506 77.5687 70.373C77.4067 70.2949 77.2619 70.1851 77.1431 70.0503C77.0242 69.9155 76.9336 69.7582 76.8765 69.5879L75.8427 66.8018H69.8918L68.8581 69.5879C68.801 69.7582 68.7104 69.9155 68.5915 70.0503C68.4726 70.1851 68.3279 70.2949 68.1659 70.373C68.0078 70.4506 67.8348 70.4932 67.6587 70.4978C67.4826 70.5025 67.3076 70.4691 67.1456 70.3999C66.9793 70.3421 66.8265 70.251 66.6967 70.1322C66.5668 70.0134 66.4627 69.8694 66.3905 69.709C66.3202 69.5406 66.2839 69.3599 66.2839 69.1774C66.2839 68.9949 66.3202 68.8142 66.3905 68.6457L71.0739 55.8417C71.182 55.5193 71.3958 55.2427 71.6807 55.0566C71.9492 54.8634 72.2712 54.7584 72.6021 54.756H73.1864C73.5201 54.7583 73.845 54.8632 74.1168 55.0566C74.4017 55.2438 74.6167 55.5198 74.7281 55.8417L79.398 68.6413ZM72.8673 58.6098L70.8312 64.1549H74.8764L72.8673 58.6098Z" fill="#F8FAFC"/>
<path d="M84.9489 66.7435C84.9489 67.255 84.9129 68.1298 85.3624 68.0894C85.589 68.05 85.8221 68.0761 86.0343 68.1647C86.2465 68.2533 86.4288 68.4006 86.5598 68.5894C86.6907 68.7781 86.7648 69.0003 86.7732 69.2297C86.7817 69.4591 86.7241 69.6862 86.6074 69.884C86.5092 70.0895 86.3542 70.2628 86.1608 70.3836C85.9673 70.5044 85.7434 70.5676 85.5152 70.5659C84.032 70.4672 84.032 70.5659 83.3173 69.8256C82.6027 69.0854 82.2521 67.9638 82.2521 66.5147V61.6246H82.0094C81.643 61.6371 81.2858 61.5086 81.0116 61.2657C80.8859 61.1527 80.7859 61.0142 80.7185 60.8594C80.651 60.7046 80.6176 60.5372 80.6205 60.3684C80.6132 60.199 80.6447 60.0302 80.7124 59.8748C80.7802 59.7193 80.8825 59.5813 81.0116 59.4711C81.2898 59.237 81.6458 59.1154 82.0094 59.1302H82.2521V56.1019C82.2478 55.9202 82.2804 55.7396 82.348 55.5708C82.4155 55.4021 82.5166 55.2487 82.6451 55.12C82.7736 54.9914 82.9269 54.89 83.0958 54.822C83.2646 54.754 83.4455 54.7209 83.6275 54.7246C83.805 54.7183 83.9818 54.7499 84.1461 54.8172C84.3104 54.8845 84.4584 54.986 84.5803 55.1149C84.7038 55.2471 84.8 55.4023 84.8632 55.5717C84.9265 55.7411 84.9556 55.9212 84.9489 56.1019V59.1302H85.9242C86.2871 59.1178 86.641 59.2446 86.9131 59.4846C87.039 59.5907 87.1399 59.7235 87.2083 59.8732C87.2766 60.0229 87.3109 60.1859 87.3086 60.3505C87.3109 60.5192 87.2773 60.6864 87.2098 60.8411C87.1424 60.9958 87.0428 61.1344 86.9176 61.2477C86.645 61.4904 86.2893 61.6189 85.9242 61.6066H84.9489V66.7256V66.7435Z" fill="#F8FAFC"/>
<path d="M101.993 56.1288C101.985 55.9457 102.015 55.763 102.079 55.5913C102.143 55.4196 102.24 55.2622 102.366 55.1283C102.492 54.998 102.645 54.8959 102.814 54.8286C102.983 54.7614 103.164 54.7305 103.345 54.738C103.521 54.7328 103.695 54.7649 103.857 54.8322C104.019 54.8995 104.165 55.0005 104.285 55.1283C104.41 55.2634 104.506 55.4217 104.569 55.5941C104.633 55.7666 104.661 55.9498 104.653 56.1333V69.0899C104.668 69.4603 104.536 69.8215 104.285 70.0948C104.165 70.2227 104.019 70.3236 103.857 70.3909C103.695 70.4582 103.521 70.4903 103.345 70.4851C103.164 70.4924 102.983 70.4614 102.814 70.3941C102.645 70.3269 102.492 70.2249 102.366 70.0948C102.24 69.96 102.143 69.8018 102.079 69.6294C102.015 69.457 101.986 69.2736 101.993 69.0899V63.5492H95.5922V69.0899C95.6068 69.4594 95.4762 69.8201 95.2281 70.0948C95.1095 70.223 94.9646 70.3243 94.8033 70.3916C94.642 70.459 94.468 70.4909 94.2932 70.4851C94.1116 70.4924 93.9305 70.4614 93.7617 70.3941C93.5929 70.3269 93.4401 70.2249 93.3134 70.0948C93.1881 69.96 93.0907 69.8018 93.0267 69.6294C92.9627 69.457 92.9333 69.2736 92.9403 69.0899V56.1333C92.9267 55.7622 93.0608 55.4009 93.3134 55.1283C93.4399 54.998 93.5927 54.8959 93.7615 54.8286C93.9304 54.7614 94.1116 54.7305 94.2932 54.738C94.468 54.7323 94.642 54.7642 94.8033 54.8315C94.9646 54.8989 95.1095 55.0001 95.2281 55.1283C95.4759 55.4015 95.6066 55.7606 95.5922 56.1288V60.9382H101.993V56.1288Z" fill="#1C9DC6"/>
<path d="M113.139 59.2199C113.814 59.2126 114.484 59.3219 115.121 59.5429C115.69 59.7429 116.216 60.0472 116.672 60.4402C117.101 60.8103 117.469 61.2465 117.76 61.7323C118.055 62.2226 118.278 62.753 118.421 63.307C118.575 63.8761 118.655 64.4626 118.659 65.0522C118.66 65.6273 118.588 66.2002 118.443 66.757C118.298 67.3104 118.076 67.8406 117.782 68.3317C117.493 68.8216 117.127 69.2623 116.699 69.6372C116.244 70.032 115.718 70.3365 115.148 70.5345C114.51 70.7586 113.838 70.8694 113.162 70.862C112.49 70.869 111.822 70.7582 111.189 70.5345C110.623 70.3344 110.1 70.03 109.647 69.6372C109.221 69.2606 108.854 68.822 108.559 68.3362C108.261 67.8462 108.036 67.3158 107.89 66.7615C107.555 65.4917 107.601 64.1521 108.02 62.9077C108.246 62.2378 108.59 61.6134 109.036 61.0638C109.505 60.4969 110.098 60.0455 110.771 59.7448C111.514 59.4035 112.321 59.2245 113.139 59.2199ZM116.155 65.0522C116.161 64.4866 116.049 63.9259 115.827 63.4057C115.605 62.8987 115.247 62.4626 114.793 62.145C114.307 61.8144 113.732 61.6376 113.144 61.6376C112.555 61.6376 111.981 61.8144 111.494 62.145C111.039 62.4659 110.68 62.9049 110.456 63.4146C110.229 63.9322 110.114 64.4917 110.119 65.0566C110.099 65.9078 110.381 66.7386 110.914 67.403C111.195 67.7135 111.538 67.9618 111.921 68.1317C112.304 68.3016 112.718 68.3894 113.137 68.3894C113.556 68.3894 113.97 68.3016 114.353 68.1317C114.736 67.9618 115.079 67.7135 115.36 67.403C115.889 66.7432 116.17 65.9196 116.155 65.0746V65.0522Z" fill="#1C9DC6"/>
<path d="M121.684 60.4536C121.679 60.2879 121.708 60.1229 121.769 59.9686C121.83 59.8144 121.922 59.6742 122.039 59.5564C122.156 59.4388 122.296 59.3466 122.451 59.2856C122.606 59.2246 122.771 59.1961 122.938 59.202C123.209 59.1957 123.475 59.2759 123.697 59.4308C123.907 59.5822 124.055 59.8034 124.115 60.0544C124.454 59.773 124.845 59.5611 125.266 59.4308C125.707 59.2808 126.17 59.2035 126.637 59.202C128.156 59.202 129.293 59.6506 130.057 60.5972C130.473 60.1291 131.002 59.7754 131.594 59.5698C132.15 59.3435 132.743 59.2189 133.343 59.202C133.927 59.1965 134.509 59.2859 135.064 59.4667C135.578 59.6358 136.054 59.9058 136.462 60.2607C136.894 60.6519 137.223 61.1435 137.419 61.6919C137.662 62.3634 137.779 63.0734 137.765 63.787V69.22C137.769 69.3856 137.739 69.5501 137.678 69.7041C137.617 69.8582 137.526 69.9986 137.41 70.1173C137.3 70.2342 137.166 70.3269 137.017 70.3894C136.869 70.452 136.709 70.483 136.547 70.4807C136.381 70.4865 136.216 70.458 136.061 70.397C135.906 70.336 135.766 70.2438 135.648 70.1262C135.532 70.0085 135.44 69.8682 135.379 69.714C135.318 69.5597 135.289 69.3947 135.293 69.229V63.778C135.311 63.4923 135.27 63.206 135.172 62.9368C135.075 62.6675 134.923 62.421 134.727 62.2123C134.532 62.0262 134.301 61.881 134.049 61.7854C133.796 61.6899 133.527 61.6459 133.257 61.656C132.68 61.635 132.116 61.8339 131.68 62.2123C131.472 62.3966 131.308 62.6245 131.199 62.8798C131.09 63.135 131.039 63.4112 131.05 63.6883V69.2065C131.055 69.3722 131.025 69.5371 130.964 69.6913C130.903 69.8454 130.812 69.9857 130.695 70.1038C130.585 70.2206 130.452 70.3132 130.305 70.3758C130.157 70.4384 129.997 70.4695 129.837 70.4672C129.67 70.4703 129.504 70.4396 129.35 70.377C129.195 70.3144 129.055 70.2212 128.937 70.1029C128.819 69.9847 128.727 69.844 128.665 69.6891C128.604 69.5343 128.574 69.3686 128.578 69.202V63.7736C128.596 63.4871 128.553 63.2002 128.454 62.9308C128.355 62.6614 128.202 62.4153 128.003 62.2078C127.804 62.0218 127.57 61.8768 127.315 61.7813C127.06 61.6859 126.788 61.6417 126.515 61.6515C125.893 61.6127 125.279 61.8044 124.789 62.1899C124.574 62.3991 124.407 62.653 124.301 62.9336C124.194 63.2142 124.151 63.5147 124.174 63.8139V69.1976C124.177 69.3631 124.147 69.5277 124.086 69.6817C124.025 69.8357 123.934 69.9762 123.819 70.0948C123.708 70.2118 123.574 70.3044 123.425 70.367C123.277 70.4295 123.117 70.4606 122.956 70.4582C122.789 70.464 122.624 70.4356 122.469 70.3746C122.314 70.3136 122.174 70.2214 122.057 70.1038C121.94 69.986 121.848 69.8458 121.787 69.6915C121.726 69.5373 121.697 69.3723 121.702 69.2065V60.4536H121.684Z" fill="#1C9DC6"/>
<path d="M144.116 65.8418C144.244 66.544 144.619 67.178 145.172 67.6301C145.725 68.0821 146.422 68.3229 147.137 68.3093C147.93 68.3182 148.709 68.1019 149.384 67.6857C149.521 67.5876 149.673 67.5119 149.834 67.4613C150.028 67.4053 150.232 67.3916 150.431 67.421C150.665 67.4506 150.882 67.5581 151.047 67.726C151.497 68.1747 151.497 68.6816 151.047 69.2514C150.62 69.7267 150.079 70.0851 149.474 70.2922C148.735 70.6124 147.938 70.7802 147.132 70.7857C146.403 70.7851 145.682 70.6323 145.015 70.3371C144.341 70.0518 143.731 69.6361 143.218 69.114C142.706 68.592 142.303 67.9739 142.031 67.2954C141.729 66.5642 141.576 65.7802 141.581 64.9894C141.578 64.1813 141.731 63.3802 142.031 62.6295C142.295 61.9439 142.692 61.3173 143.2 60.7856C143.682 60.2894 144.258 59.893 144.894 59.6192C145.525 59.3394 146.208 59.1957 146.899 59.1975C147.606 59.1876 148.309 59.3236 148.962 59.5968C149.54 59.8409 150.056 60.212 150.472 60.6825C150.86 61.1271 151.181 61.6259 151.425 62.163C151.668 62.7076 151.843 63.2802 151.946 63.8678C152.175 65.1868 151.676 65.8418 150.463 65.8418H144.116ZM149.51 63.6883C149.366 63.0673 149.025 62.509 148.539 62.0957C148.084 61.6978 147.499 61.4792 146.894 61.481C146.284 61.4781 145.692 61.6893 145.222 62.0777C144.703 62.505 144.302 63.058 144.058 63.6838H149.51V63.6883Z" fill="#1C9DC6"/>
<path d="M119.612 46.5594C119.612 47.008 119.58 47.8291 119.989 47.8066C120.139 47.7972 120.29 47.8174 120.432 47.8661C120.575 47.9147 120.706 47.9909 120.819 48.0903C120.932 48.1896 121.024 48.3102 121.09 48.4451C121.157 48.5801 121.196 48.7267 121.205 48.8766C121.214 49.0266 121.194 49.1769 121.145 49.319C121.097 49.4612 121.02 49.5923 120.921 49.705C120.821 49.8177 120.7 49.9097 120.565 49.9758C120.43 50.0419 120.283 50.0808 120.133 50.0902C118.785 50.0005 118.785 50.0902 118.119 49.4127C117.454 48.7353 117.14 47.7034 117.14 46.371V41.2745H116.919C116.589 41.2839 116.267 41.1667 116.02 40.947C115.904 40.8419 115.811 40.7129 115.749 40.5689C115.687 40.4249 115.657 40.2692 115.661 40.1125C115.657 39.9597 115.687 39.808 115.75 39.6684C115.812 39.5287 115.904 39.4046 116.02 39.305C116.272 39.0946 116.591 38.983 116.919 38.9909H117.14V36.7881C117.134 36.6214 117.163 36.4554 117.224 36.3002C117.285 36.145 117.377 36.004 117.495 35.8859C117.613 35.7677 117.754 35.675 117.91 35.6133C118.065 35.5517 118.231 35.5225 118.398 35.5275C118.561 35.5215 118.723 35.55 118.874 35.611C119.025 35.6721 119.162 35.7644 119.275 35.8819C119.5 36.1253 119.621 36.4475 119.612 36.7791V39.0313H120.511C120.84 39.0233 121.161 39.1385 121.409 39.3543C121.525 39.4517 121.618 39.5733 121.681 39.7106C121.744 39.8479 121.775 39.9974 121.774 40.1484C121.777 40.3051 121.747 40.4608 121.685 40.6048C121.623 40.7488 121.53 40.8778 121.414 40.9829C121.167 41.2026 120.846 41.3198 120.515 41.3104H119.616L119.612 46.5594Z" fill="#1C9DC6"/>
<path d="M18.5809 70.7902V67.5421H19.0304C19.7271 67.5421 21.026 67.8517 21.026 68.547V79.4982C21.026 81.8805 22.5272 83.9846 24.9139 83.9173C27.4803 83.859 28.8782 82.4144 28.8782 79.9155V71.2837C27.2062 70.7947 26.1814 68.8611 26.1814 66.582V63.2576V62.9391H33.7324V63.2307C34.324 63.1764 34.883 62.936 35.3289 62.5441C35.7748 62.1523 36.0846 61.6292 36.2134 61.0503L41.6565 46.5639C41.6565 46.5639 42.5239 44.074 41.18 43.2844L40.4519 43.1094C40.1444 43.5564 39.6977 43.8896 39.181 44.0574C38.6644 44.2251 38.1068 44.218 37.5946 44.0371C37.0825 43.8562 36.6444 43.5117 36.3485 43.057C36.0525 42.6023 35.9152 42.0627 35.9578 41.5222C36.0003 40.9816 36.2204 40.4701 36.584 40.0671C36.9475 39.6641 37.4341 39.3922 37.9682 39.2934C38.5024 39.1946 39.0543 39.2745 39.5383 39.5208C40.0223 39.7671 40.4114 40.1659 40.6452 40.6554C41.3688 40.6868 43.6925 40.9559 44.0926 43.078C44.5645 45.5993 43.6431 48.3136 43.6431 48.3136L38.6046 61.7053C38.6046 61.7053 37.2562 65.2944 33.7594 66.3353V66.5775C33.7594 68.6323 32.9863 70.1666 31.557 70.8261V79.6239C31.557 83.2129 28.5366 86.479 24.9678 86.6001C24.0852 86.6315 23.2053 86.485 22.3807 86.1695C21.556 85.854 20.8034 85.3759 20.1679 84.7637C19.5324 84.1516 19.0269 83.4179 18.6817 82.6065C18.3364 81.7951 18.1585 80.9226 18.1584 80.0411V70.7768L18.5809 70.7902Z" fill="#1C9DC6"/>
<path d="M58.5061 29.7037H51.7641L51.7911 66.4919C51.7911 66.4919 52.4338 71.391 47.3458 70.8257L40.9185 70.8706V66.3079H47.211V26.3794C47.211 26.3794 47.0807 25.4552 48.3392 25.4282L53.0675 25.4552L31.0438 5.65686C31.0438 5.65686 29.8347 3.91167 28.5492 5.68378L6.7412 25.4776H10.247C10.247 25.4776 12.7101 25.2219 12.6112 27.658L12.2247 66.5367C12.2247 66.5367 11.8831 67.5865 12.9708 67.5417H18.1441V70.7808L10.2515 70.6956C10.2515 70.6956 8.0042 71.0994 8.12555 67.0796L8.26039 29.7935H2.28251C2.28251 29.7935 -2.05033 28.5059 1.22627 24.2438L28.5133 0.798139C28.5133 0.798139 30.2347 -0.996404 31.5696 0.798139L59.7061 26.0204C59.7061 26.0204 62.2051 28.3444 58.5061 29.7037Z" fill="#1C9DC6"/>
<path d="M26.2083 63.2576V66.5865C21.9833 65.6892 20.2214 61.7188 20.2214 61.7188L15.1694 48.3225C15.1694 48.3225 14.2076 45.5948 14.72 43.0869C15.3043 40.3772 18.5539 40.3772 18.5539 40.3772C18.8483 39.9192 19.2861 39.5712 19.7991 39.3873C20.3122 39.2034 20.8717 39.194 21.3907 39.3604C21.9098 39.5269 22.3591 39.8599 22.6688 40.3077C22.9785 40.7554 23.1313 41.2928 23.1033 41.8362C23.0754 42.3797 22.8682 42.8986 22.5142 43.3123C22.1601 43.7261 21.6789 44.0114 21.1456 44.1238C20.6122 44.2363 20.0566 44.1697 19.5651 43.9343C19.0736 43.6989 18.6739 43.3079 18.4281 42.8222L17.6325 43.2709C16.5133 44.2713 17.183 46.5504 17.183 46.5504L22.6261 61.0369C22.9441 61.7132 23.4517 62.2829 24.0875 62.677C24.7233 63.0712 25.46 63.2729 26.2083 63.2576Z" fill="#1C9DC6"/>
<path d="M18.5809 67.5421V70.7902L18.1494 70.7857V67.5421H18.5809Z" fill="#1C9DC6"/>
<path d="M18.5809 67.5421V70.7902L18.1494 70.7857V67.5421H18.5809Z" fill="#1C9DC6"/>
</g>
</g>
<defs>
<clipPath id="clip0">
<rect width="152" height="86.6047" fill="white"/>
</clipPath>
<clipPath id="clip1">
<rect width="152" height="86.6047" fill="white"/>
</clipPath>
</defs>
</svg>
