<svg width="88" height="88" viewBox="0 0 88 88" fill="none" xmlns="http://www.w3.org/2000/svg">
<path d="M15.6819 33.1891C15.3665 33.1891 15.064 33.0638 14.841 32.8408C14.618 32.6178 14.4927 32.3153 14.4927 31.9999C14.4952 27.2657 15.6316 22.6009 17.8068 18.396C19.9821 14.1912 23.1328 10.5685 26.9954 7.83111C30.858 5.09377 35.3201 3.32142 40.0082 2.66241C44.6963 2.00339 49.4741 2.47688 53.9417 4.04324C54.2399 4.14732 54.4845 4.36559 54.6218 4.65005C54.759 4.93451 54.7777 5.26184 54.6736 5.56005C54.5695 5.85825 54.3513 6.1029 54.0668 6.24016C53.7823 6.37743 53.455 6.39607 53.1568 6.29199C49.0482 4.85149 44.6544 4.41596 40.343 5.02183C36.0315 5.62771 31.9279 7.25737 28.3755 9.77446C24.8231 12.2915 21.9252 15.6228 19.9243 19.4896C17.9233 23.3564 16.8776 27.6461 16.8746 31.9999C16.8746 32.1564 16.8437 32.3113 16.7838 32.4558C16.7238 32.6003 16.6359 32.7316 16.5251 32.842C16.4143 32.9525 16.2827 33.04 16.138 33.0996C15.9934 33.1591 15.8383 33.1895 15.6819 33.1891Z" fill="#1E293B"/>
<path d="M72.5477 51.6857C72.2324 51.6857 71.9299 51.5604 71.7069 51.3374C71.4838 51.1144 71.3586 50.8119 71.3586 50.4966V31.9999C71.3638 27.4784 70.2414 23.027 68.0929 19.0486C65.9445 15.0702 62.8378 11.6903 59.054 9.21503C58.9235 9.12914 58.8111 9.01838 58.7234 8.88906C58.6356 8.75975 58.5742 8.61442 58.5426 8.46136C58.511 8.30831 58.5099 8.15054 58.5393 7.99705C58.5687 7.84357 58.628 7.69737 58.7139 7.56682C58.7998 7.43626 58.9106 7.3239 59.0399 7.23616C59.1692 7.14841 59.3145 7.08699 59.4676 7.05541C59.6206 7.02383 59.7784 7.0227 59.9319 7.05209C60.0854 7.08148 60.2316 7.14082 60.3621 7.22671C64.4754 9.91841 67.8526 13.5933 70.1879 17.9189C72.5232 22.2445 73.7431 27.0842 73.7369 31.9999V50.4966C73.7369 50.8119 73.6116 51.1144 73.3886 51.3374C73.1656 51.5604 72.8631 51.6857 72.5477 51.6857Z" fill="#1E293B"/>
<path d="M72.5489 59.4821C72.4536 59.4821 72.3586 59.4709 72.2659 59.4488C69.6826 58.8232 67.3852 57.346 65.7439 55.2553C64.1026 53.1647 63.213 50.5823 63.2185 47.9243V31.5801C63.2185 31.2647 63.3438 30.9623 63.5668 30.7392C63.7899 30.5162 64.0923 30.3909 64.4077 30.3909C64.7231 30.3909 65.0256 30.5162 65.2486 30.7392C65.4716 30.9623 65.5969 31.2647 65.5969 31.5801V47.9243C65.5928 50.0488 66.3042 52.1127 67.6162 53.7836C68.9283 55.4544 70.7647 56.6348 72.8296 57.1346C73.1125 57.203 73.3606 57.3729 73.5267 57.6119C73.6928 57.851 73.7655 58.1427 73.7309 58.4318C73.6963 58.7209 73.5569 58.9872 73.339 59.1803C73.1212 59.3735 72.84 59.48 72.5489 59.4797V59.4821Z" fill="#1E293B"/>
<path d="M15.4524 41.1388C15.137 41.1388 14.8345 41.0135 14.6115 40.7905C14.3885 40.5675 14.2632 40.265 14.2632 39.9496C14.2632 39.6342 14.3885 39.3317 14.6115 39.1087C14.8345 38.8857 15.137 38.7604 15.4524 38.7604C17.356 38.7582 19.1811 38.001 20.5272 36.6549C21.8733 35.3088 22.6305 33.4838 22.6327 31.5801C22.6344 26.5406 24.4074 21.662 27.6417 17.7974C30.8761 13.9327 35.366 11.3279 40.3263 10.4384C45.2867 9.54883 50.4019 10.4312 54.7776 12.9311C59.1533 15.431 62.5111 19.3895 64.2638 24.1144C64.3742 24.41 64.3626 24.7375 64.2316 25.0246C64.1006 25.3117 63.8609 25.5351 63.5652 25.6454C63.2695 25.7558 62.9421 25.7442 62.655 25.6132C62.3678 25.4822 62.1445 25.2425 62.0341 24.9468C60.4755 20.7449 57.4895 17.2246 53.5983 15.0013C49.707 12.778 45.1581 11.9932 40.7468 12.7841C36.3355 13.575 32.3426 15.8913 29.4661 19.328C26.5897 22.7648 25.0128 27.1032 25.0111 31.5849C25.007 34.1183 23.9984 36.5467 22.2066 38.3377C20.4147 40.1286 17.9858 41.136 15.4524 41.1388Z" fill="#1E293B"/>
<path d="M15.6819 49.8508C15.3665 49.8508 15.064 49.7255 14.841 49.5025C14.618 49.2795 14.4927 48.977 14.4927 48.6616C14.4927 48.3462 14.618 48.0437 14.841 47.8207C15.064 47.5977 15.3665 47.4724 15.6819 47.4724C19.3741 47.5465 22.9544 46.2029 25.6865 43.7181C27.334 42.1672 28.6397 40.2895 29.5201 38.2052C30.4006 36.1209 30.8366 33.8758 30.8 31.6134V31.4826C30.7936 29.4315 31.2628 27.4068 32.1707 25.5675C33.0785 23.7283 34.4004 22.1245 36.0325 20.8821C36.156 20.784 36.2979 20.7114 36.4498 20.6686C36.6017 20.6258 36.7606 20.6137 36.9172 20.633C37.0739 20.6522 37.2251 20.7024 37.3621 20.7807C37.4991 20.859 37.6192 20.9638 37.7153 21.089C37.8114 21.2141 37.8817 21.3572 37.922 21.5097C37.9623 21.6623 37.9718 21.8214 37.9499 21.9777C37.9281 22.134 37.8754 22.2844 37.7949 22.4201C37.7144 22.5558 37.6076 22.6742 37.4809 22.7682C36.139 23.7894 35.0521 25.1077 34.3056 26.6198C33.559 28.1318 33.1732 29.7963 33.1784 31.4826V31.6134C33.2145 34.208 32.7086 36.7817 31.6929 39.1695C30.6772 41.5574 29.1742 43.7069 27.28 45.4805C24.1153 48.3672 19.9646 49.9312 15.6819 49.8508Z" fill="#1E293B"/>
<path d="M69.4904 68.2155C67.28 68.1912 65.1157 67.5805 63.2186 66.446C60.7175 64.944 58.6549 62.8112 57.2376 60.2612C55.8202 57.7112 55.0979 54.8335 55.1428 51.9164V31.4826C55.1397 28.5712 53.9817 25.78 51.9231 23.7213C49.8644 21.6627 47.0732 20.5048 44.1618 20.5016C43.8465 20.5016 43.544 20.3763 43.321 20.1533C43.0979 19.9303 42.9727 19.6278 42.9727 19.3124C42.9727 18.997 43.0979 18.6946 43.321 18.4715C43.544 18.2485 43.8465 18.1232 44.1618 18.1232C47.7038 18.127 51.0996 19.5357 53.6042 22.0403C56.1087 24.5448 57.5174 27.9406 57.5212 31.4826V51.9164C57.4752 54.4154 58.0867 56.8825 59.2945 59.0707C60.5023 61.2588 62.264 63.0911 64.403 64.3839C66.1003 65.4263 68.0747 65.9269 70.0636 65.8193C70.2198 65.8093 70.3763 65.8303 70.5244 65.8809C70.6725 65.9315 70.8091 66.0107 70.9266 66.1142C71.044 66.2176 71.1399 66.3431 71.2089 66.4836C71.2778 66.6241 71.3184 66.7768 71.3283 66.9329C71.3382 67.0891 71.3173 67.2457 71.2667 67.3938C71.2161 67.5418 71.1368 67.6785 71.0334 67.7959C70.93 67.9134 70.8044 68.0093 70.6639 68.0782C70.5235 68.1471 70.3708 68.1877 70.2146 68.1976C69.9732 68.2071 69.7318 68.2155 69.4904 68.2155Z" fill="#1E293B"/>
<path d="M15.6819 58.3357C15.3665 58.3357 15.064 58.2104 14.841 57.9874C14.618 57.7644 14.4927 57.4619 14.4927 57.1465C14.4927 56.8311 14.618 56.5286 14.841 56.3056C15.064 56.0826 15.3665 55.9573 15.6819 55.9573C15.8008 55.9573 27.9139 55.8455 32.5469 48.054C32.625 47.9161 32.7297 47.7953 32.8551 47.6985C32.9804 47.6017 33.1238 47.5309 33.2769 47.4903C33.43 47.4497 33.5896 47.44 33.7465 47.4619C33.9033 47.4839 34.0542 47.5369 34.1903 47.6179C34.3264 47.699 34.4449 47.8063 34.5389 47.9338C34.6329 48.0613 34.7005 48.2062 34.7378 48.3601C34.775 48.5141 34.7811 48.6739 34.7557 48.8302C34.7303 48.9866 34.674 49.1362 34.59 49.2705C29.26 58.2322 16.2336 58.3357 15.6819 58.3357Z" fill="#1E293B"/>
<path d="M15.6807 67.125C15.3787 67.124 15.0883 67.0081 14.8686 66.8009C14.6489 66.5937 14.5162 66.3106 14.4976 66.0091C14.479 65.7076 14.5758 65.4103 14.7684 65.1776C14.9609 64.9449 15.2348 64.7942 15.5345 64.7561C42.6349 61.3681 47.0099 42.6812 47.2109 31.8441C47.2197 31.3924 47.1258 30.9445 46.9363 30.5344C46.7468 30.1243 46.4666 29.7625 46.1168 29.4764C45.6659 29.1027 45.1164 28.8674 44.5348 28.7988C43.9531 28.7301 43.364 28.8312 42.8384 29.0897C42.3129 29.3482 41.8733 29.7532 41.5726 30.2558C41.2719 30.7584 41.1229 31.3373 41.1437 31.9226C41.2244 36.4103 40.0373 40.8298 37.7188 44.6731C37.6329 44.8036 37.5222 44.9158 37.3929 45.0035C37.2636 45.0912 37.1183 45.1526 36.9653 45.1841C36.8123 45.2156 36.6546 45.2167 36.5012 45.1873C36.3478 45.1578 36.2017 45.0985 36.0712 45.0126C35.9407 44.9267 35.8284 44.816 35.7407 44.6867C35.6531 44.5574 35.5917 44.4121 35.5602 44.2591C35.5287 44.1061 35.5276 43.9484 35.557 43.795C35.5864 43.6416 35.6458 43.4955 35.7317 43.365C37.7642 39.9221 38.812 35.987 38.7605 31.9892C38.7259 30.947 38.993 29.917 39.5297 29.0229C40.0663 28.1289 40.8498 27.4088 41.7858 26.9492C42.7219 26.4897 43.7707 26.3102 44.8063 26.4324C45.8419 26.5546 46.8201 26.9732 47.6236 27.638C48.2502 28.1511 48.7522 28.7999 49.0917 29.5353C49.4311 30.2707 49.5993 31.0735 49.5833 31.8834C49.4145 41.2316 45.7839 63.3719 15.8294 67.1155C15.7801 67.1221 15.7305 67.1253 15.6807 67.125Z" fill="#1E293B"/>
<path d="M65.2092 76.7943C65.076 76.7941 64.9437 76.7716 64.818 76.7277C61.0492 75.2344 57.6347 72.9688 54.794 70.0768C51.9533 67.1847 49.7494 63.7301 48.3239 59.9351C45.4544 63.8595 37.8983 71.8163 22.0274 75.4992C21.7222 75.565 21.4034 75.5081 21.1399 75.3409C20.8763 75.1737 20.689 74.9096 20.6184 74.6055C20.5479 74.3015 20.5997 73.9818 20.7627 73.7156C20.9258 73.4495 21.1869 73.258 21.4898 73.1827C41.4682 68.5449 47.5771 56.7315 47.6365 56.6114C47.7447 56.395 47.9162 56.2167 48.1283 56.1003C48.3404 55.984 48.5829 55.9351 48.8236 55.9601C49.0642 55.9852 49.2914 56.0831 49.4749 56.2406C49.6585 56.3982 49.7896 56.608 49.8508 56.8421C53.3066 70.0195 65.4791 74.4421 65.6028 74.4801C65.8681 74.5728 66.0919 74.7565 66.2347 74.9985C66.3775 75.2405 66.4299 75.5253 66.3828 75.8023C66.3356 76.0793 66.1919 76.3307 65.977 76.5118C65.7622 76.693 65.4902 76.7922 65.2092 76.7919V76.7943Z" fill="#1E293B"/>
<path d="M30.6144 82.871C30.3246 82.8725 30.0442 82.7681 29.8259 82.5773C29.6076 82.3866 29.4665 82.1227 29.4291 81.8353C29.3917 81.5478 29.4606 81.2566 29.6228 81.0164C29.785 80.7761 30.0294 80.6034 30.31 80.5307C43.2603 77.1035 45.7588 72.0649 45.7837 72.0197C45.8756 71.8237 46.0187 71.6562 46.1979 71.5348C46.377 71.4134 46.5856 71.3426 46.8017 71.3299C47.0165 71.3173 47.2307 71.3631 47.4215 71.4626C47.6122 71.5621 47.7725 71.7115 47.885 71.8948C51.3028 77.5554 58.2667 80.5557 58.3368 80.5854C58.6208 80.7124 58.8437 80.9456 58.9577 81.2351C59.0718 81.5245 59.0678 81.8471 58.9468 82.1337C58.8258 82.4202 58.5972 82.648 58.3103 82.768C58.0233 82.8881 57.7007 82.8909 57.4116 82.7759C53.289 80.9296 49.666 78.1268 46.8433 74.6002C45.0702 76.6539 40.744 80.2298 30.9189 82.8306C30.8194 82.8562 30.7172 82.8697 30.6144 82.871Z" fill="#1E293B"/>
<path d="M43.7718 85.6216C43.5177 85.6218 43.2703 85.5407 43.0657 85.3901C42.8611 85.2395 42.7102 85.0273 42.6349 84.7847C42.5597 84.542 42.5641 84.2817 42.6475 84.0417C42.731 83.8018 42.8891 83.5949 43.0987 83.4513L46.1906 81.331C46.3192 81.2389 46.4649 81.1734 46.6191 81.1383C46.7734 81.1032 46.9331 81.0993 47.0889 81.1267C47.2447 81.1541 47.3935 81.2123 47.5265 81.2979C47.6595 81.3835 47.7741 81.4948 47.8636 81.6253C47.9531 81.7557 48.0156 81.9027 48.0476 82.0577C48.0795 82.2126 48.0803 82.3723 48.0497 82.5275C48.0192 82.6828 47.9579 82.8303 47.8697 82.9616C47.7814 83.0928 47.6678 83.2052 47.5355 83.292L44.4437 85.4135C44.2458 85.549 44.0116 85.6216 43.7718 85.6216Z" fill="#1E293B"/>
</svg>
