<svg width="24" height="24" viewBox="0 0 24 24" fill="none" xmlns="http://www.w3.org/2000/svg">
<mask id="path-1-inside-1" fill="white">
<path fill-rule="evenodd" clip-rule="evenodd" d="M2.9683 9.29111C1.77703 8.46327 1 7.10388 1 5.56725C1 3.04483 3.09381 1 5.67665 1C7.64997 1 9.33784 2.19359 10.0246 3.88184C10.6424 3.7637 11.2808 3.70178 11.9341 3.70178C12.6305 3.70178 13.31 3.77214 13.9657 3.90598C14.6461 2.20498 16.3406 1 18.3233 1C20.9062 1 23 3.04483 23 5.56725C23 7.14648 22.1793 8.5385 20.9317 9.35872C21.4986 10.5753 21.8143 11.9271 21.8143 13.3509C21.8143 18.68 17.3908 23 11.9341 23C6.47737 23 2.05383 18.68 2.05383 13.3509C2.05383 11.9007 2.38143 10.5252 2.9683 9.29111Z"/>
</mask>
<path d="M2.9683 9.29111L4.77446 10.1501C5.19492 9.26594 4.91356 8.20741 4.10962 7.64874L2.9683 9.29111ZM10.0246 3.88184L8.17198 4.63543C8.53121 5.51854 9.46383 6.02532 10.4002 5.84625L10.0246 3.88184ZM13.9657 3.90598L13.5657 5.86557C14.5133 6.05899 15.4635 5.5467 15.8226 4.64878L13.9657 3.90598ZM20.9317 9.35872L19.833 7.68753C19.0036 8.23278 18.6996 9.30376 19.1188 10.2034L20.9317 9.35872ZM4.10962 7.64874C3.42261 7.17132 3 6.4089 3 5.56725H-1C-1 7.79887 0.131459 9.75523 1.82698 10.9335L4.10962 7.64874ZM3 5.56725C3 4.19376 4.15349 3 5.67665 3V-1C2.03413 -1 -1 1.89589 -1 5.56725H3ZM5.67665 3C6.83107 3 7.78977 3.69582 8.17198 4.63543L11.8772 3.12825C10.8859 0.691361 8.46887 -1 5.67665 -1V3ZM11.9341 1.70178C11.1542 1.70178 10.39 1.77572 9.64892 1.91744L10.4002 5.84625C10.8948 5.75167 11.4075 5.70178 11.9341 5.70178V1.70178ZM14.3657 1.94638C13.579 1.78581 12.7655 1.70178 11.9341 1.70178V5.70178C12.4954 5.70178 13.041 5.75847 13.5657 5.86557L14.3657 1.94638ZM15.8226 4.64878C16.2011 3.70252 17.1633 3 18.3233 3V-1C15.5179 -1 13.0911 0.707432 12.1087 3.16318L15.8226 4.64878ZM18.3233 3C19.8465 3 21 4.19376 21 5.56725H25C25 1.89589 21.9659 -1 18.3233 -1V3ZM21 5.56725C21 6.43176 20.5536 7.2138 19.833 7.68753L22.0304 11.0299C23.805 9.86321 25 7.8612 25 5.56725H21ZM23.8143 13.3509C23.8143 11.6282 23.4317 9.98872 22.7445 8.51401L19.1188 10.2034C19.5654 11.1619 19.8143 12.226 19.8143 13.3509H23.8143ZM11.9341 25C18.4505 25 23.8143 19.8289 23.8143 13.3509H19.8143C19.8143 17.531 16.3311 21 11.9341 21V25ZM0.053827 13.3509C0.053827 19.8289 5.41769 25 11.9341 25V21C7.53704 21 4.05383 17.531 4.05383 13.3509H0.053827ZM1.16214 8.43216C0.450846 9.92785 0.053827 11.5962 0.053827 13.3509H4.05383C4.05383 12.2052 4.31201 11.1225 4.77446 10.1501L1.16214 8.43216Z" fill="#55A9C3" mask="url(#path-1-inside-1)"/>
<path d="M7.71875 16.424C7.71875 16.424 8.66152 17.6338 9.53731 17.8816C10.4738 18.1465 12.0001 17.5 12.0001 17.5M12.0001 17.5C12.0001 17.5 13.5001 18 14.3313 17.8816C15.5001 17.5 16.1499 16.424 16.1499 16.424M12.0001 17.5V15.5M12.0001 15.5L10.5001 14H13.5001L12.0001 15.5Z" stroke="#55A9C3" stroke-width="2" stroke-linecap="round" stroke-linejoin="round"/>
<path d="M15.3594 10.2632H15.3694" stroke="#55A9C3" stroke-width="2" stroke-linecap="round" stroke-linejoin="round"/>
<path d="M8.50903 10.2632H8.51903" stroke="#55A9C3" stroke-width="2" stroke-linecap="round" stroke-linejoin="round"/>
</svg>
