<svg width="48" height="48" viewBox="0 0 48 48" fill="none" xmlns="http://www.w3.org/2000/svg">
<circle cx="24" cy="24" r="24" fill="#ECFDF5"/>
<path d="M32.3332 23.2333V24C32.3321 25.797 31.7503 27.5456 30.6743 28.9849C29.5983 30.4241 28.0859 31.4771 26.3626 31.9866C24.6394 32.4961 22.7976 32.4349 21.1119 31.8122C19.4262 31.1894 17.987 30.0384 17.009 28.5309C16.0309 27.0234 15.5663 25.2401 15.6846 23.4469C15.8028 21.6538 16.4975 19.9469 17.6651 18.5809C18.8326 17.2149 20.4105 16.2628 22.1633 15.8668C23.9162 15.4708 25.7501 15.652 27.3915 16.3833" stroke="#10B981" stroke-width="2" stroke-linecap="round" stroke-linejoin="round"/>
<path d="M32.3333 17.3333L24 25.675L21.5 23.175" stroke="#10B981" stroke-width="2" stroke-linecap="round" stroke-linejoin="round"/>
</svg>
