<svg width="24" height="24" viewBox="0 0 24 24" fill="none" xmlns="http://www.w3.org/2000/svg">
<mask id="path-1-inside-1" fill="white">
<path fill-rule="evenodd" clip-rule="evenodd" d="M14.4297 23C14.9974 23 15.5348 22.8604 16.0138 22.6113C17.8567 21.933 19.7922 19.7733 20.9799 16.8035C21.8111 14.7251 22.1226 12.6335 21.9574 10.9118C21.9258 10.1762 21.7481 9.4817 21.4548 8.86107C21.2874 8.48311 21.0822 8.14983 20.8402 7.87034C19.9785 6.7837 18.6964 6.09468 17.2648 6.09468C16.5892 6.09468 15.9469 6.24813 15.3663 6.52439C14.3477 6.80961 13.2399 6.96609 12.0813 6.96609C10.6287 6.96609 9.25591 6.72011 8.03868 6.28282C8.03644 6.2851 8.0342 6.28738 8.03196 6.28966C7.62012 6.16269 7.18511 6.09469 6.73534 6.09469C5.30369 6.09469 4.02161 6.78371 3.15997 7.87035C2.91796 8.14984 2.71275 8.48312 2.54534 8.86108C2.25201 9.48171 2.0743 10.1762 2.04273 10.9118C1.87749 12.6335 2.18906 14.7251 3.02023 16.8035C4.20786 19.7732 6.14319 21.9327 7.98598 22.6112C8.46504 22.8603 9.00251 23 9.57029 23C10.1545 23 10.7067 22.8521 11.1961 22.5892C11.4434 22.5164 11.7065 22.4771 11.9794 22.4771C12.2909 22.4771 12.5896 22.5283 12.8665 22.622C13.3403 22.8644 13.8703 23 14.4297 23Z"/>
</mask>
<path d="M16.0138 22.6113L15.323 20.7344L15.2038 20.7782L15.0911 20.8368L16.0138 22.6113ZM20.9799 16.8035L19.1229 16.0608V16.0608L20.9799 16.8035ZM21.9574 10.9118L19.9592 10.9975L19.9615 11.0503L19.9665 11.1028L21.9574 10.9118ZM21.4548 8.86107L19.6261 9.67101L19.6361 9.69348L19.6466 9.7157L21.4548 8.86107ZM20.8402 7.87034L19.273 9.11298L19.2999 9.14685L19.3282 9.17953L20.8402 7.87034ZM15.3663 6.52439L15.9056 8.45032L16.0708 8.40405L16.2258 8.33032L15.3663 6.52439ZM8.03868 6.28282L8.71487 4.4006L7.51081 3.96804L6.61333 4.87984L8.03868 6.28282ZM8.03196 6.28966L7.44272 8.20089L8.60644 8.55967L9.4594 7.69053L8.03196 6.28966ZM3.15997 7.87035L4.67193 9.17954L4.70023 9.14686L4.72709 9.11298L3.15997 7.87035ZM2.54534 8.86108L4.35355 9.71571L4.36405 9.69349L4.374 9.67101L2.54534 8.86108ZM2.04273 10.9118L4.03358 11.1028L4.03863 11.0503L4.04089 10.9975L2.04273 10.9118ZM3.02023 16.8035L1.16323 17.5462H1.16323L3.02023 16.8035ZM7.98598 22.6112L8.90882 20.8368L8.79613 20.7782L8.67693 20.7343L7.98598 22.6112ZM11.1961 22.5892L10.6313 20.6706L10.4324 20.7292L10.2498 20.8273L11.1961 22.5892ZM12.8665 22.622L13.7774 20.8415L13.6469 20.7747L13.508 20.7277L12.8665 22.622ZM15.0911 20.8368C14.8864 20.9433 14.6644 21 14.4297 21V25C15.3304 25 16.1831 24.7775 16.9365 24.3857L15.0911 20.8368ZM19.1229 16.0608C18.0443 18.758 16.4227 20.3296 15.323 20.7344L16.7046 24.4882C19.2907 23.5364 21.5401 20.7887 22.8369 17.5462L19.1229 16.0608ZM19.9665 11.1028C20.0968 12.4605 19.8543 14.2318 19.1229 16.0608L22.8369 17.5462C23.7678 15.2184 24.1484 12.8065 23.9482 10.7207L19.9665 11.1028ZM19.6466 9.7157C19.8268 10.097 19.9392 10.5303 19.9592 10.9975L23.9556 10.826C23.9125 9.8221 23.6694 8.86636 23.263 8.00644L19.6466 9.7157ZM19.3282 9.17953C19.422 9.28786 19.5267 9.44646 19.6261 9.67101L23.2834 8.05113C23.0481 7.51975 22.7423 7.0118 22.3521 6.56115L19.3282 9.17953ZM17.2648 8.09468C18.0296 8.09468 18.7544 8.45894 19.273 9.11298L22.4073 6.62771C21.2026 5.10847 19.3632 4.09468 17.2648 4.09468V8.09468ZM16.2258 8.33032C16.5466 8.17765 16.8961 8.09468 17.2648 8.09468V4.09468C16.2823 4.09468 15.3471 4.3186 14.5069 4.71846L16.2258 8.33032ZM12.0813 8.96609C13.419 8.96609 14.7084 8.78553 15.9056 8.45032L14.8271 4.59847C13.987 4.83369 13.0608 4.96609 12.0813 4.96609V8.96609ZM7.36249 8.16505C8.803 8.68255 10.4051 8.96609 12.0813 8.96609V4.96609C10.8524 4.96609 9.70882 4.75768 8.71487 4.4006L7.36249 8.16505ZM9.4594 7.69053C9.46085 7.68905 9.46239 7.68748 9.46404 7.68581L6.61333 4.87984C6.61049 4.88272 6.60755 4.88572 6.60452 4.8888L9.4594 7.69053ZM6.73534 8.09469C6.98217 8.09469 7.21868 8.13182 7.44272 8.20089L8.6212 4.37843C8.02155 4.19356 7.38805 4.09469 6.73534 4.09469V8.09469ZM4.72709 9.11298C5.2457 8.45894 5.97049 8.09469 6.73534 8.09469V4.09469C4.63689 4.09469 2.79752 5.10848 1.59285 6.62771L4.72709 9.11298ZM4.374 9.67101C4.47346 9.44647 4.57812 9.28787 4.67193 9.17954L1.64801 6.56116C1.2578 7.01181 0.952034 7.51976 0.716678 8.05115L4.374 9.67101ZM4.04089 10.9975C4.06094 10.5303 4.17331 10.097 4.35355 9.71571L0.737136 8.00645C0.330706 8.86636 0.0876551 9.82211 0.0445685 10.826L4.04089 10.9975ZM4.87724 16.0609C4.14578 14.2318 3.90328 12.4605 4.03358 11.1028L0.051877 10.7207C-0.148306 12.8065 0.232332 15.2184 1.16323 17.5462L4.87724 16.0609ZM8.67693 20.7343C7.57725 20.3295 5.95579 18.7578 4.87724 16.0609L1.16323 17.5462C2.45993 20.7886 4.70914 23.536 7.29502 24.488L8.67693 20.7343ZM9.57029 21C9.33556 21 9.1135 20.9432 8.90882 20.8368L7.06313 24.3855C7.81659 24.7774 8.66945 25 9.57029 25V21ZM10.2498 20.8273C10.0399 20.94 9.81159 21 9.57029 21V25C10.4975 25 11.3735 24.7642 12.1425 24.3511L10.2498 20.8273ZM11.9794 20.4771C11.5142 20.4771 11.0609 20.5441 10.6313 20.6706L11.761 24.5078C11.8259 24.4887 11.8988 24.4771 11.9794 24.4771V20.4771ZM13.508 20.7277C13.0259 20.5645 12.5106 20.4771 11.9794 20.4771V24.4771C12.0712 24.4771 12.1534 24.4921 12.2251 24.5164L13.508 20.7277ZM14.4297 21C14.1983 21 13.9794 20.9448 13.7774 20.8415L11.9557 24.4026C12.7011 24.7839 13.5422 25 14.4297 25V21Z" fill="#55A9C3" mask="url(#path-1-inside-1)"/>
<path d="M12.3618 4.73913C12.3618 3.46087 13.0885 2 15.1877 2" stroke="#55A9C3" stroke-width="2" stroke-linecap="round" stroke-linejoin="round"/>
</svg>
