<svg width="152" height="87" viewBox="0 0 152 87" fill="none" xmlns="http://www.w3.org/2000/svg">
<g clip-path="url(#clip0)">
<path d="M18.5809 70.7902V67.5421H19.0304C19.727 67.5421 21.026 67.8517 21.026 68.5471V79.4983C21.026 81.8805 22.5272 83.9846 24.9139 83.9173C27.4803 83.859 28.8781 82.4144 28.8781 79.9155V71.2837C27.2061 70.7947 26.1814 68.8611 26.1814 66.582V63.2577V62.9391H33.7324V63.2307C34.324 63.1764 34.883 62.936 35.3289 62.5442C35.7748 62.1523 36.0845 61.6292 36.2134 61.0504L41.6564 46.5639C41.6564 46.5639 42.5239 44.074 41.18 43.2844L40.4519 43.1094C40.1443 43.5564 39.6976 43.8897 39.181 44.0574C38.6644 44.2252 38.1067 44.218 37.5946 44.0372C37.0825 43.8563 36.6444 43.5117 36.3485 43.057C36.0525 42.6023 35.9151 42.0628 35.9577 41.5222C36.0003 40.9816 36.2204 40.4701 36.5839 40.0671C36.9474 39.6642 37.434 39.3922 37.9682 39.2934C38.5024 39.1946 39.0543 39.2746 39.5383 39.5208C40.0223 39.7671 40.4114 40.1659 40.6451 40.6554C41.3688 40.6868 43.6925 40.956 44.0925 43.078C44.5645 45.5994 43.6431 48.3136 43.6431 48.3136L38.6046 61.7054C38.6046 61.7054 37.2562 65.2945 33.7593 66.3353V66.5776C33.7593 68.6323 32.9863 70.1666 31.557 70.8261V79.6239C31.557 83.213 28.5366 86.479 24.9678 86.6002C24.0852 86.6315 23.2053 86.485 22.3806 86.1695C21.5559 85.854 20.8034 85.3759 20.1679 84.7638C19.5324 84.1516 19.0269 83.418 18.6817 82.6066C18.3364 81.7952 18.1585 80.9227 18.1584 80.0411V70.7768L18.5809 70.7902Z" fill="#1C9DC6"/>
<path d="M58.506 29.7038H51.7641L51.791 66.4919C51.791 66.4919 52.4338 71.391 47.3458 70.8257L40.9185 70.8706V66.308H47.211V26.3794C47.211 26.3794 47.0806 25.4552 48.3391 25.4283L53.0675 25.4552L31.0437 5.65691C31.0437 5.65691 29.8347 3.91172 28.5492 5.68383L6.74119 25.4776H10.247C10.247 25.4776 12.7101 25.2219 12.6112 27.658L12.2247 66.5368C12.2247 66.5368 11.8831 67.5866 12.9708 67.5417H18.1441V70.7809L10.2515 70.6956C10.2515 70.6956 8.00418 71.0994 8.12554 67.0796L8.26038 29.7935H2.28249C2.28249 29.7935 -2.05035 28.5059 1.22625 24.2439L28.5133 0.798185C28.5133 0.798185 30.2347 -0.996358 31.5696 0.798185L59.7061 26.0205C59.7061 26.0205 62.2051 28.3444 58.506 29.7038Z" fill="#1C9DC6"/>
<path d="M26.2083 63.2577V66.5865C21.9833 65.6893 20.2214 61.7188 20.2214 61.7188L15.1694 48.3226C15.1694 48.3226 14.2076 45.5949 14.72 43.087C15.3043 40.3772 18.5539 40.3772 18.5539 40.3772C18.8483 39.9193 19.2861 39.5712 19.7991 39.3874C20.3122 39.2035 20.8717 39.194 21.3907 39.3605C21.9098 39.5269 22.3591 39.8599 22.6688 40.3077C22.9785 40.7555 23.1313 41.2929 23.1033 41.8363C23.0754 42.3797 22.8682 42.8986 22.5142 43.3124C22.1601 43.7261 21.6789 44.0114 21.1456 44.1239C20.6122 44.2364 20.0566 44.1697 19.5651 43.9343C19.0736 43.6989 18.6739 43.308 18.4281 42.8223L17.6325 43.2709C16.5133 44.2714 17.183 46.5505 17.183 46.5505L22.6261 61.0369C22.9441 61.7132 23.4517 62.2829 24.0875 62.6771C24.7233 63.0712 25.46 63.2729 26.2083 63.2577Z" fill="#1C9DC6"/>
<path d="M18.5809 67.5421V70.7902L18.1494 70.7857V67.5421H18.5809Z" fill="#1C9DC6"/>
<path d="M18.5809 67.5421V70.7902L18.1494 70.7857V67.5421H18.5809Z" fill="#1C9DC6"/>
</g>
<defs>
<clipPath id="clip0">
<rect width="152" height="86.6047" fill="white"/>
</clipPath>
</defs>
</svg>
