<svg width="152" height="87" viewBox="0 0 152 87" fill="none" xmlns="http://www.w3.org/2000/svg">
<g clip-path="url(#clip0)">
<path d="M75.3348 35.6307C75.3276 35.4476 75.3569 35.2649 75.421 35.0931C75.485 34.9214 75.5825 34.7641 75.7078 34.6302C75.8344 34.4999 75.9871 34.3977 76.156 34.3305C76.3248 34.2632 76.506 34.2323 76.6877 34.2399C76.863 34.2347 77.0375 34.2668 77.1995 34.3341C77.3614 34.4014 77.5072 34.5023 77.6271 34.6302C77.7517 34.7653 77.8485 34.9235 77.9117 35.096C77.975 35.2684 78.0035 35.4517 77.9956 35.6351V48.5828C78.0105 48.9532 77.878 49.3144 77.6271 49.5877C77.5072 49.7156 77.3614 49.8165 77.1995 49.8838C77.0375 49.9511 76.863 49.9832 76.6877 49.978C76.5061 49.9853 76.3249 49.9543 76.1561 49.887C75.9873 49.8198 75.8346 49.7178 75.7078 49.5877C75.5826 49.4529 75.4852 49.2947 75.4211 49.1223C75.3571 48.9499 75.3278 48.7665 75.3348 48.5828V43.069H68.9344V48.6007C68.949 48.9703 68.8184 49.3309 68.5703 49.6057C68.4517 49.7339 68.3068 49.8351 68.1455 49.9025C67.9842 49.9698 67.8102 50.0017 67.6355 49.996C67.4538 50.0032 67.2727 49.9722 67.1039 49.905C66.9351 49.8377 66.7823 49.7357 66.6556 49.6057C66.5304 49.4708 66.4329 49.3127 66.3689 49.1402C66.3049 48.9678 66.2756 48.7845 66.2826 48.6007V35.6351C66.2689 35.2641 66.4031 34.9028 66.6556 34.6302C66.7822 34.4999 66.9349 34.3977 67.1037 34.3305C67.2726 34.2632 67.4538 34.2323 67.6355 34.2399C67.8102 34.2341 67.9842 34.266 68.1455 34.3334C68.3068 34.4007 68.4517 34.502 68.5703 34.6302C68.8181 34.9033 68.9488 35.2625 68.9344 35.6307V40.44H75.3348V35.6307Z" fill="#1C9DC6"/>
<path d="M84.0859 45.3437C84.2138 46.046 84.588 46.6799 85.1414 47.132C85.6948 47.5841 86.3913 47.8249 87.1063 47.8112C87.8995 47.8202 88.6789 47.6039 89.3536 47.1876C89.4906 47.0895 89.6423 47.0138 89.8031 46.9633C89.9971 46.9073 90.201 46.8935 90.4009 46.9229C90.6347 46.9525 90.8516 47.06 91.0166 47.228C91.4661 47.6766 91.4661 48.1836 91.0166 48.7533C90.5904 49.2303 90.0488 49.5902 89.4435 49.7987C88.7042 50.1188 87.9077 50.2867 87.1018 50.2922C86.3725 50.2915 85.6514 50.1387 84.9848 49.8435C84.3113 49.5557 83.7015 49.1375 83.1908 48.6131C82.6801 48.0887 82.2786 47.4685 82.0094 46.7883C81.7075 46.0571 81.5547 45.2732 81.5599 44.4823C81.5569 43.6742 81.7095 42.8731 82.0094 42.1225C82.2732 41.4369 82.6703 40.8102 83.178 40.2786C83.6605 39.7824 84.2363 39.386 84.8725 39.1122C85.5035 38.8324 86.1866 38.6887 86.8771 38.6904C87.5849 38.6806 88.2872 38.8165 88.9401 39.0897C89.5188 39.3339 90.0349 39.705 90.4503 40.1754C90.8383 40.6201 91.1593 41.1188 91.4032 41.6559C91.6466 42.2006 91.8217 42.7732 91.9245 43.3607C92.1538 44.6797 91.6549 45.3347 90.4413 45.3347H84.0859V45.3437ZM89.4795 43.1903C89.3449 42.5738 89.0175 42.0161 88.5446 41.5976C88.0895 41.1997 87.5046 40.9812 86.8995 40.983C86.2894 40.9801 85.6976 41.1913 85.2275 41.5797C84.7034 42.0053 84.2979 42.5584 84.0499 43.1858H89.5019L89.4795 43.1903Z" fill="#1C9DC6"/>
<path d="M105.552 49.0315C105.567 49.1936 105.547 49.3571 105.494 49.5111C105.441 49.6651 105.357 49.8064 105.246 49.9257C105.135 50.045 105 50.1396 104.85 50.2035C104.7 50.2674 104.538 50.2991 104.375 50.2966C104.089 50.3037 103.81 50.2082 103.588 50.0274C103.37 49.8431 103.221 49.5899 103.166 49.3096C102.452 49.8491 101.608 50.1915 100.72 50.3026C99.8317 50.4136 98.9297 50.2893 98.1047 49.9422C97.4426 49.6776 96.8336 49.2961 96.3068 48.8161C95.7537 48.2991 95.3171 47.6706 95.0259 46.9722C94.6972 46.2024 94.5319 45.3729 94.5404 44.5361C94.5372 43.7279 94.7057 42.9282 95.0349 42.1898C95.3376 41.4914 95.7743 40.8589 96.3203 40.3279C96.844 39.8281 97.4529 39.4255 98.1182 39.139C98.7507 38.8508 99.4366 38.698 100.132 38.6904C101.197 38.7157 102.231 39.0596 103.098 39.6774C103.137 39.3956 103.283 39.1398 103.507 38.9641C103.738 38.7802 104.026 38.6833 104.321 38.6904C104.487 38.6818 104.654 38.7089 104.809 38.7701C104.964 38.8312 105.104 38.9249 105.22 39.0448C105.333 39.1646 105.422 39.3055 105.48 39.4595C105.539 39.6135 105.566 39.7775 105.561 39.9421V49.0135L105.552 49.0315ZM100.159 47.856C100.556 47.8638 100.95 47.7879 101.315 47.6333C101.681 47.4787 102.01 47.2488 102.28 46.9588C102.875 46.289 103.178 45.4113 103.125 44.5182C103.184 43.6155 102.895 42.7246 102.316 42.0283C102.042 41.7318 101.707 41.4981 101.334 41.3433C100.961 41.1884 100.558 41.116 100.154 41.131C99.7459 41.1286 99.3414 41.2098 98.9657 41.3695C98.59 41.5293 98.2511 41.7641 97.9699 42.0597C97.3779 42.7339 97.0479 43.5977 97.0396 44.4942C97.0314 45.3906 97.3455 46.2603 97.9249 46.9453C98.214 47.2392 98.5598 47.4715 98.9415 47.6281C99.3231 47.7846 99.7327 47.8622 100.145 47.856H100.159Z" fill="#1C9DC6"/>
<path d="M112.366 48.6905C112.501 50.5344 109.669 50.5344 109.8 48.6905V35.4961C109.665 33.6522 112.497 33.6522 112.366 35.4961V48.6905Z" fill="#1C9DC6"/>
<path d="M134.048 48.7129C134.053 48.8786 134.023 49.0434 133.962 49.1976C133.901 49.3517 133.81 49.492 133.693 49.6101C133.583 49.7269 133.45 49.8196 133.302 49.8821C133.155 49.9447 132.995 49.9758 132.835 49.9735C132.668 49.9766 132.502 49.9459 132.348 49.8833C132.193 49.8207 132.052 49.7275 131.935 49.6093C131.817 49.491 131.725 49.3503 131.663 49.1954C131.602 49.0406 131.572 48.8749 131.576 48.7084V43.2799C131.593 42.993 131.548 42.7058 131.445 42.4375C131.342 42.1691 131.183 41.9257 130.979 41.7231C130.567 41.3489 130.025 41.1494 129.468 41.1668C128.877 41.1503 128.299 41.3478 127.841 41.7231C127.624 41.9006 127.451 42.1257 127.334 42.3809C127.218 42.6361 127.163 42.9145 127.172 43.1946V48.7129C127.175 48.8784 127.145 49.043 127.084 49.197C127.023 49.351 126.932 49.4914 126.816 49.6101C126.706 49.727 126.572 49.8197 126.423 49.8823C126.275 49.9448 126.115 49.9759 125.954 49.9735C125.787 49.9793 125.622 49.9509 125.467 49.8899C125.312 49.8289 125.172 49.7367 125.055 49.6191C124.938 49.5013 124.846 49.3611 124.785 49.2068C124.724 49.0526 124.695 48.8876 124.7 48.7218V35.4422C124.695 35.2765 124.724 35.1115 124.785 34.9572C124.846 34.803 124.938 34.6627 125.055 34.545C125.172 34.4273 125.312 34.3352 125.467 34.2742C125.622 34.2132 125.787 34.1847 125.954 34.1905C126.12 34.1819 126.286 34.2091 126.442 34.2702C126.597 34.3314 126.737 34.4251 126.852 34.545C126.966 34.6647 127.054 34.8056 127.113 34.9596C127.171 35.1136 127.199 35.2776 127.194 35.4422V39.3498C127.927 38.9483 128.741 38.7196 129.576 38.6814C130.165 38.6766 130.75 38.7707 131.307 38.9595C131.833 39.1447 132.318 39.4296 132.736 39.7985C133.181 40.2048 133.52 40.7129 133.725 41.279C133.973 41.9568 134.094 42.6748 134.08 43.3965V48.6994L134.048 48.7129Z" fill="#1C9DC6"/>
<path d="M79.398 68.6413C79.475 68.8103 79.5148 68.9939 79.5148 69.1796C79.5148 69.3654 79.475 69.5489 79.398 69.718C79.2236 70.0386 78.9348 70.282 78.5889 70.3999C78.427 70.4691 78.2519 70.5025 78.0758 70.4978C77.8997 70.4932 77.7267 70.4506 77.5686 70.373C77.4066 70.2949 77.2619 70.1851 77.143 70.0503C77.0242 69.9155 76.9335 69.7582 76.8765 69.5879L75.8427 66.8019H69.8918L68.858 69.5879C68.801 69.7582 68.7103 69.9155 68.5915 70.0503C68.4726 70.1851 68.3279 70.2949 68.1659 70.373C68.0078 70.4506 67.8348 70.4932 67.6587 70.4978C67.4826 70.5025 67.3075 70.4691 67.1456 70.3999C66.9792 70.3421 66.8265 70.251 66.6966 70.1322C66.5668 70.0134 66.4626 69.8694 66.3905 69.709C66.3201 69.5406 66.2839 69.3599 66.2839 69.1774C66.2839 68.9949 66.3201 68.8142 66.3905 68.6458L71.0739 55.8417C71.182 55.5193 71.3957 55.2427 71.6807 55.0566C71.9491 54.8634 72.2711 54.7584 72.6021 54.756H73.1864C73.5201 54.7583 73.845 54.8633 74.1168 55.0566C74.4017 55.2438 74.6166 55.5198 74.728 55.8417L79.398 68.6413ZM72.8672 58.6098L70.8312 64.1549H74.8764L72.8672 58.6098Z" fill="#64748B"/>
<path d="M84.9489 66.7436C84.9489 67.2551 84.9129 68.1299 85.3624 68.0895C85.5889 68.0501 85.8221 68.0762 86.0343 68.1648C86.2464 68.2533 86.4288 68.4007 86.5597 68.5894C86.6907 68.7782 86.7647 69.0004 86.7732 69.2298C86.7816 69.4592 86.7241 69.6862 86.6074 69.8841C86.5091 70.0896 86.3542 70.2629 86.1607 70.3837C85.9673 70.5045 85.7434 70.5677 85.5152 70.566C84.032 70.4673 84.032 70.566 83.3173 69.8257C82.6027 69.0855 82.2521 67.9639 82.2521 66.5148V61.6247H82.0094C81.643 61.6372 81.2857 61.5087 81.0116 61.2658C80.8859 61.1528 80.7859 61.0143 80.7185 60.8595C80.651 60.7047 80.6176 60.5373 80.6205 60.3685C80.6132 60.1991 80.6446 60.0303 80.7124 59.8748C80.7801 59.7194 80.8824 59.5814 81.0116 59.4712C81.2898 59.2371 81.6458 59.1155 82.0094 59.1303H82.2521V56.102C82.2478 55.9203 82.2804 55.7397 82.3479 55.5709C82.4155 55.4022 82.5166 55.2488 82.6451 55.1201C82.7736 54.9914 82.9269 54.8901 83.0957 54.8221C83.2646 54.7541 83.4454 54.721 83.6274 54.7247C83.8049 54.7184 83.9817 54.75 84.146 54.8173C84.3103 54.8846 84.4584 54.9861 84.5803 55.115C84.7038 55.2472 84.7999 55.4024 84.8632 55.5718C84.9264 55.7412 84.9556 55.9213 84.9489 56.102V59.1303H85.9242C86.2871 59.1179 86.6409 59.2447 86.913 59.4847C87.039 59.5908 87.1398 59.7236 87.2082 59.8733C87.2766 60.023 87.3109 60.186 87.3086 60.3506C87.3109 60.5192 87.2772 60.6865 87.2098 60.8412C87.1424 60.9959 87.0428 61.1345 86.9175 61.2478C86.645 61.4905 86.2892 61.619 85.9242 61.6067H84.9489V66.7257V66.7436Z" fill="#64748B"/>
<path d="M101.993 56.1288C101.985 55.9457 102.015 55.763 102.079 55.5913C102.143 55.4196 102.24 55.2622 102.366 55.1284C102.492 54.9981 102.645 54.8959 102.814 54.8287C102.983 54.7614 103.164 54.7305 103.345 54.7381C103.521 54.7328 103.695 54.7649 103.857 54.8322C104.019 54.8995 104.165 55.0005 104.285 55.1284C104.41 55.2634 104.506 55.4217 104.569 55.5942C104.633 55.7666 104.661 55.9498 104.653 56.1333V69.0899C104.668 69.4603 104.536 69.8216 104.285 70.0948C104.165 70.2227 104.019 70.3237 103.857 70.391C103.695 70.4583 103.521 70.4904 103.345 70.4852C103.164 70.4924 102.983 70.4614 102.814 70.3942C102.645 70.3269 102.492 70.2249 102.366 70.0948C102.24 69.96 102.143 69.8019 102.079 69.6294C102.015 69.457 101.986 69.2737 101.993 69.0899V63.5492H95.5922V69.0899C95.6068 69.4595 95.4762 69.8201 95.2281 70.0948C95.1095 70.2231 94.9646 70.3243 94.8033 70.3917C94.642 70.459 94.468 70.4909 94.2932 70.4852C94.1116 70.4924 93.9305 70.4614 93.7617 70.3942C93.5929 70.3269 93.4401 70.2249 93.3134 70.0948C93.1881 69.96 93.0907 69.8019 93.0267 69.6294C92.9627 69.457 92.9333 69.2737 92.9403 69.0899V56.1333C92.9267 55.7623 93.0608 55.4009 93.3134 55.1284C93.4399 54.9981 93.5927 54.8959 93.7615 54.8287C93.9304 54.7614 94.1116 54.7305 94.2932 54.7381C94.468 54.7323 94.642 54.7642 94.8033 54.8316C94.9646 54.8989 95.1095 55.0001 95.2281 55.1284C95.4759 55.4015 95.6066 55.7606 95.5922 56.1288V60.9382H101.993V56.1288Z" fill="#1C9DC6"/>
<path d="M113.139 59.2199C113.814 59.2126 114.484 59.3219 115.121 59.543C115.69 59.7429 116.216 60.0472 116.672 60.4402C117.101 60.8104 117.468 61.2466 117.76 61.7323C118.055 62.2226 118.278 62.753 118.421 63.307C118.575 63.8761 118.655 64.4627 118.659 65.0522C118.66 65.6273 118.588 66.2003 118.443 66.757C118.298 67.3105 118.076 67.8406 117.782 68.3317C117.493 68.8217 117.127 69.2624 116.699 69.6373C116.244 70.032 115.718 70.3365 115.148 70.5345C114.51 70.7586 113.838 70.8694 113.162 70.862C112.49 70.8691 111.822 70.7582 111.189 70.5345C110.623 70.3344 110.1 70.0301 109.647 69.6373C109.221 69.2607 108.854 68.8221 108.559 68.3362C108.261 67.8463 108.036 67.3159 107.89 66.7615C107.555 65.4917 107.601 64.1521 108.02 62.9077C108.246 62.2378 108.59 61.6134 109.036 61.0638C109.505 60.4969 110.098 60.0455 110.771 59.7449C111.514 59.4035 112.321 59.2246 113.139 59.2199ZM116.155 65.0522C116.161 64.4866 116.049 63.926 115.827 63.4057C115.605 62.8988 115.247 62.4626 114.793 62.1451C114.307 61.8145 113.732 61.6377 113.144 61.6377C112.555 61.6377 111.981 61.8145 111.494 62.1451C111.039 62.466 110.68 62.905 110.456 63.4147C110.229 63.9322 110.114 64.4918 110.119 65.0567C110.099 65.9078 110.381 66.7386 110.914 67.4031C111.195 67.7136 111.538 67.9618 111.921 68.1318C112.304 68.3017 112.718 68.3895 113.137 68.3895C113.556 68.3895 113.97 68.3017 114.353 68.1318C114.736 67.9618 115.079 67.7136 115.36 67.4031C115.889 66.7432 116.17 65.9196 116.155 65.0746V65.0522Z" fill="#1C9DC6"/>
<path d="M121.684 60.4537C121.679 60.288 121.708 60.123 121.769 59.9687C121.83 59.8145 121.922 59.6742 122.039 59.5565C122.156 59.4388 122.296 59.3467 122.451 59.2857C122.606 59.2247 122.771 59.1962 122.938 59.202C123.209 59.1958 123.475 59.276 123.697 59.4308C123.907 59.5822 124.055 59.8034 124.115 60.0544C124.454 59.7731 124.845 59.5612 125.266 59.4308C125.707 59.2809 126.17 59.2036 126.637 59.202C128.156 59.202 129.293 59.6507 130.057 60.5973C130.473 60.1292 131.002 59.7755 131.594 59.5699C132.15 59.3435 132.743 59.2189 133.343 59.202C133.927 59.1966 134.509 59.286 135.064 59.4667C135.578 59.6359 136.054 59.9059 136.462 60.2608C136.894 60.652 137.223 61.1436 137.419 61.692C137.662 62.3635 137.779 63.0735 137.765 63.7871V69.2201C137.769 69.3856 137.739 69.5502 137.678 69.7042C137.617 69.8582 137.526 69.9987 137.41 70.1173C137.3 70.2343 137.166 70.3269 137.017 70.3895C136.869 70.4521 136.709 70.4831 136.547 70.4807C136.381 70.4865 136.216 70.4581 136.061 70.3971C135.906 70.3361 135.766 70.2439 135.648 70.1263C135.532 70.0085 135.44 69.8683 135.379 69.714C135.318 69.5598 135.289 69.3948 135.293 69.229V63.7781C135.311 63.4924 135.27 63.2061 135.172 62.9368C135.075 62.6676 134.923 62.421 134.727 62.2124C134.532 62.0262 134.301 61.8811 134.049 61.7855C133.796 61.69 133.527 61.6459 133.257 61.6561C132.68 61.6351 132.116 61.834 131.68 62.2124C131.472 62.3966 131.308 62.6246 131.199 62.8798C131.09 63.1351 131.039 63.4112 131.05 63.6884V69.2066C131.055 69.3723 131.025 69.5372 130.964 69.6913C130.903 69.8455 130.812 69.9858 130.695 70.1039C130.585 70.2207 130.452 70.3133 130.305 70.3759C130.157 70.4385 129.997 70.4696 129.837 70.4673C129.67 70.4704 129.504 70.4397 129.35 70.3771C129.195 70.3145 129.055 70.2212 128.937 70.103C128.819 69.9848 128.727 69.844 128.665 69.6892C128.604 69.5344 128.574 69.3687 128.578 69.2021V63.7736C128.596 63.4872 128.553 63.2003 128.454 62.9309C128.355 62.6615 128.202 62.4153 128.003 62.2079C127.804 62.0218 127.57 61.8769 127.315 61.7814C127.06 61.6859 126.788 61.6418 126.515 61.6516C125.893 61.6127 125.279 61.8044 124.789 62.1899C124.574 62.3992 124.407 62.6531 124.301 62.9337C124.194 63.2143 124.151 63.5148 124.174 63.814V69.1976C124.177 69.3632 124.147 69.5278 124.086 69.6818C124.025 69.8358 123.934 69.9762 123.819 70.0949C123.708 70.2118 123.574 70.3045 123.425 70.3671C123.277 70.4296 123.117 70.4607 122.956 70.4583C122.789 70.4641 122.624 70.4356 122.469 70.3747C122.314 70.3137 122.174 70.2215 122.057 70.1039C121.94 69.9861 121.848 69.8459 121.787 69.6916C121.726 69.5374 121.697 69.3724 121.702 69.2066V60.4537H121.684Z" fill="#1C9DC6"/>
<path d="M144.116 65.8418C144.244 66.5441 144.619 67.178 145.172 67.6301C145.725 68.0822 146.422 68.323 147.137 68.3093C147.93 68.3183 148.709 68.102 149.384 67.6857C149.521 67.5876 149.673 67.5119 149.834 67.4614C150.028 67.4054 150.232 67.3916 150.431 67.421C150.665 67.4506 150.882 67.5581 151.047 67.7261C151.497 68.1747 151.497 68.6817 151.047 69.2514C150.62 69.7268 150.079 70.0851 149.474 70.2923C148.735 70.6124 147.938 70.7803 147.132 70.7858C146.403 70.7851 145.682 70.6323 145.015 70.3371C144.341 70.0518 143.731 69.6361 143.218 69.1141C142.706 68.592 142.303 67.9739 142.031 67.2954C141.729 66.5642 141.576 65.7803 141.581 64.9894C141.578 64.1813 141.731 63.3802 142.031 62.6296C142.295 61.944 142.692 61.3173 143.2 60.7857C143.682 60.2894 144.258 59.8931 144.894 59.6192C145.525 59.3395 146.208 59.1958 146.899 59.1975C147.606 59.1877 148.309 59.3236 148.962 59.5968C149.54 59.841 150.056 60.212 150.472 60.6825C150.86 61.1272 151.181 61.6259 151.425 62.163C151.668 62.7077 151.843 63.2803 151.946 63.8678C152.175 65.1868 151.676 65.8418 150.463 65.8418H144.116ZM149.51 63.6884C149.366 63.0674 149.025 62.509 148.539 62.0957C148.084 61.6978 147.499 61.4793 146.894 61.4811C146.284 61.4782 145.692 61.6894 145.222 62.0778C144.703 62.505 144.302 63.058 144.058 63.6839H149.51V63.6884Z" fill="#1C9DC6"/>
<path d="M119.612 46.5595C119.612 47.0081 119.58 47.8291 119.989 47.8067C120.139 47.7973 120.29 47.8175 120.432 47.8661C120.575 47.9148 120.706 47.991 120.819 48.0903C120.932 48.1897 121.024 48.3103 121.09 48.4452C121.157 48.5801 121.196 48.7267 121.205 48.8767C121.214 49.0266 121.194 49.1769 121.145 49.3191C121.097 49.4612 121.02 49.5924 120.921 49.7051C120.821 49.8178 120.7 49.9098 120.565 49.9759C120.43 50.0419 120.283 50.0808 120.133 50.0902C118.785 50.0005 118.785 50.0902 118.119 49.4128C117.454 48.7354 117.14 47.7035 117.14 46.371V41.2745H116.919C116.589 41.284 116.267 41.1668 116.02 40.947C115.904 40.8419 115.811 40.713 115.749 40.569C115.687 40.425 115.657 40.2693 115.661 40.1126C115.657 39.9598 115.687 39.8081 115.75 39.6684C115.812 39.5288 115.904 39.4047 116.02 39.305C116.272 39.0947 116.591 38.983 116.919 38.991H117.14V36.7882C117.134 36.6215 117.163 36.4554 117.224 36.3003C117.285 36.1451 117.377 36.0041 117.495 35.8859C117.613 35.7678 117.754 35.675 117.91 35.6134C118.065 35.5517 118.231 35.5225 118.398 35.5275C118.561 35.5215 118.723 35.55 118.874 35.6111C119.025 35.6722 119.162 35.7645 119.275 35.8819C119.5 36.1253 119.621 36.4476 119.612 36.7792V39.0314H120.511C120.84 39.0234 121.161 39.1386 121.409 39.3544C121.525 39.4517 121.618 39.5734 121.681 39.7107C121.744 39.848 121.775 39.9975 121.774 40.1485C121.777 40.3052 121.747 40.4609 121.685 40.6049C121.623 40.7489 121.53 40.8778 121.414 40.9829C121.167 41.2027 120.846 41.3199 120.515 41.3104H119.616L119.612 46.5595Z" fill="#1C9DC6"/>
<path d="M18.5809 70.7902V67.5421H19.0304C19.727 67.5421 21.026 67.8517 21.026 68.5471V79.4983C21.026 81.8805 22.5272 83.9846 24.9139 83.9173C27.4803 83.859 28.8781 82.4144 28.8781 79.9155V71.2837C27.2061 70.7947 26.1814 68.8611 26.1814 66.582V63.2577V62.9391H33.7324V63.2307C34.324 63.1764 34.883 62.936 35.3289 62.5442C35.7748 62.1523 36.0845 61.6292 36.2134 61.0504L41.6564 46.5639C41.6564 46.5639 42.5239 44.074 41.18 43.2844L40.4519 43.1094C40.1443 43.5564 39.6976 43.8897 39.181 44.0574C38.6644 44.2252 38.1067 44.218 37.5946 44.0372C37.0825 43.8563 36.6444 43.5117 36.3485 43.057C36.0525 42.6023 35.9151 42.0628 35.9577 41.5222C36.0003 40.9816 36.2204 40.4701 36.5839 40.0671C36.9474 39.6642 37.434 39.3922 37.9682 39.2934C38.5024 39.1946 39.0543 39.2746 39.5383 39.5208C40.0223 39.7671 40.4114 40.1659 40.6451 40.6554C41.3688 40.6868 43.6925 40.956 44.0925 43.078C44.5645 45.5994 43.6431 48.3136 43.6431 48.3136L38.6046 61.7054C38.6046 61.7054 37.2562 65.2945 33.7593 66.3353V66.5776C33.7593 68.6323 32.9863 70.1666 31.557 70.8261V79.6239C31.557 83.213 28.5366 86.479 24.9678 86.6002C24.0852 86.6315 23.2053 86.485 22.3806 86.1695C21.5559 85.854 20.8034 85.3759 20.1679 84.7638C19.5324 84.1516 19.0269 83.418 18.6817 82.6066C18.3364 81.7952 18.1585 80.9227 18.1584 80.0411V70.7768L18.5809 70.7902Z" fill="#1C9DC6"/>
<path d="M58.506 29.7038H51.7641L51.791 66.4919C51.791 66.4919 52.4338 71.391 47.3458 70.8257L40.9185 70.8706V66.308H47.211V26.3794C47.211 26.3794 47.0806 25.4552 48.3391 25.4283L53.0675 25.4552L31.0437 5.65691C31.0437 5.65691 29.8347 3.91172 28.5492 5.68383L6.74119 25.4776H10.247C10.247 25.4776 12.7101 25.2219 12.6112 27.658L12.2247 66.5368C12.2247 66.5368 11.8831 67.5866 12.9708 67.5417H18.1441V70.7809L10.2515 70.6956C10.2515 70.6956 8.00418 71.0994 8.12554 67.0796L8.26038 29.7935H2.28249C2.28249 29.7935 -2.05035 28.5059 1.22625 24.2439L28.5133 0.798185C28.5133 0.798185 30.2347 -0.996358 31.5696 0.798185L59.7061 26.0205C59.7061 26.0205 62.2051 28.3444 58.506 29.7038Z" fill="#1C9DC6"/>
<path d="M26.2083 63.2577V66.5865C21.9833 65.6893 20.2214 61.7188 20.2214 61.7188L15.1694 48.3226C15.1694 48.3226 14.2076 45.5949 14.72 43.087C15.3043 40.3772 18.5539 40.3772 18.5539 40.3772C18.8483 39.9193 19.2861 39.5712 19.7991 39.3874C20.3122 39.2035 20.8717 39.194 21.3907 39.3605C21.9098 39.5269 22.3591 39.8599 22.6688 40.3077C22.9785 40.7555 23.1313 41.2929 23.1033 41.8363C23.0754 42.3797 22.8682 42.8986 22.5142 43.3124C22.1601 43.7261 21.6789 44.0114 21.1456 44.1239C20.6122 44.2364 20.0566 44.1697 19.5651 43.9343C19.0736 43.6989 18.6739 43.308 18.4281 42.8223L17.6325 43.2709C16.5133 44.2714 17.183 46.5505 17.183 46.5505L22.6261 61.0369C22.9441 61.7132 23.4517 62.2829 24.0875 62.6771C24.7233 63.0712 25.46 63.2729 26.2083 63.2577Z" fill="#1C9DC6"/>
<path d="M18.5809 67.5421V70.7902L18.1494 70.7857V67.5421H18.5809Z" fill="#1C9DC6"/>
<path d="M18.5809 67.5421V70.7902L18.1494 70.7857V67.5421H18.5809Z" fill="#1C9DC6"/>
</g>
<defs>
<clipPath id="clip0">
<rect width="152" height="86.6047" fill="white"/>
</clipPath>
</defs>
</svg>
